<?xml version="1.0" encoding="UTF-8"?>
<svg version="1.1" xmlns="http://www.w3.org/2000/svg" width="400" height="331">
<path d="M0 0 C3.05375592 4.41098078 2.48647245 9.92827221 2.74609375 15.08203125 C3.12024861 18.58057202 3.705834 21.40662015 5.125 24.625 C8.63013451 25.79337817 11.47614073 25.80260324 15.17578125 25.87109375 C16.65690502 25.90264566 18.13802464 25.93439316 19.61914062 25.96630859 C20.40393799 25.98167664 21.18873535 25.99704468 21.99731445 26.01287842 C35.87500803 26.29508364 49.74909729 26.72371889 63.61410522 27.38308716 C65.28138161 27.46071925 66.94889569 27.53341195 68.61660767 27.6010437 C70.9536042 27.69704608 73.28906351 27.81092947 75.625 27.9296875 C76.31301193 27.9547789 77.00102386 27.9798703 77.70988464 28.00572205 C81.96152096 28.24814034 84.74090075 29.02213317 88.125 31.625 C92.34501401 36.36887753 92.20446149 41.71170187 92.8046875 47.81640625 C92.93165009 49.08327774 93.05861267 50.35014923 93.18942261 51.65541077 C94.76578076 68.68875167 94.42471913 85.79889209 94.27270508 102.88519287 C94.21230695 110.00713874 94.17921798 117.12925649 94.14693832 124.2513752 C94.13326658 126.69614528 94.11166958 129.1407364 94.08865356 131.58543396 C94.0276297 139.69424323 94.21382886 147.68142595 94.88957214 155.76766968 C95.18013477 159.29415724 95.29195365 162.77441789 95.3125 166.3125 C95.32667969 167.45074219 95.34085938 168.58898437 95.35546875 169.76171875 C95.125 172.625 95.125 172.625 93.125 175.625 C89.5 176.3125 89.5 176.3125 86.125 176.625 C85.795 177.615 85.465 178.605 85.125 179.625 C79.67368523 183.12057445 73.84781823 184.26754771 67.5 184.6875 C65.74601248 184.83235263 63.99211189 184.97826017 62.23828125 185.125 C61.27486816 185.20105469 60.31145508 185.27710938 59.31884766 185.35546875 C55.76385146 185.6554776 52.21696263 186.01086196 48.66796875 186.375 C33.82866882 187.89554418 19.04053436 189.18818008 4.125 189.625 C2.74950395 189.668865 1.37401622 189.71299173 -0.00146484 189.75732422 C-20.70120534 190.41297968 -41.40812094 190.75819354 -62.11791992 190.85617065 C-64.37413911 190.86850398 -66.63033781 190.88583328 -68.88647461 190.90872192 C-81.43204526 191.0282114 -93.59611489 190.62568386 -106.00798035 188.66851807 C-114.66640268 187.32914451 -123.11759462 187.55165757 -131.83642578 188.14501953 C-135.21510274 187.28315343 -136.69862275 185.26882601 -138.875 182.625 C-143.08202149 172.43693076 -143.7504182 161.25119008 -144.5 150.375 C-144.71362153 147.45250303 -144.93562551 144.53075015 -145.1640625 141.609375 C-145.2181427 140.90985718 -145.2722229 140.21033936 -145.32794189 139.48962402 C-145.7227404 134.69476697 -146.44032462 130.0497737 -147.38546753 125.33729553 C-148.96359573 116.59354444 -149.0444461 107.7227872 -149.078125 98.86328125 C-149.08382507 97.67381393 -149.08952515 96.48434662 -149.09539795 95.25883484 C-149.10479008 92.75532912 -149.11135871 90.25181136 -149.11523438 87.74829102 C-149.12492842 83.96543288 -149.1560039 80.18312148 -149.1875 76.40039062 C-149.31167125 48.88671586 -149.31167125 48.88671586 -145.875 39.625 C-142.71626839 36.57230923 -139.93045488 36.04587949 -135.625 35.4375 C-134.54734375 35.27894531 -133.4696875 35.12039062 -132.359375 34.95703125 C-131.53953125 34.84746094 -130.7196875 34.73789063 -129.875 34.625 C-130.1225 32.954375 -130.1225 32.954375 -130.375 31.25 C-130.77338757 27.95744388 -131.02661415 24.69060322 -131.125 21.375 C-131.15078125 20.56546875 -131.1765625 19.7559375 -131.203125 18.921875 C-130.77211524 15.9048067 -130.10482431 14.71940988 -127.875 12.625 C-119.77470429 9.97111339 -111.04566827 9.34896113 -102.5625 9.25 C-101.83981934 9.23614258 -101.11713867 9.22228516 -100.37255859 9.20800781 C-95.38494377 9.25318764 -95.38494377 9.25318764 -92.95703125 11.0234375 C-90.57199022 14.55364263 -90.58170741 17.51959781 -90.3125 21.75 C-90.22871094 23.03132813 -90.14492187 24.31265625 -90.05859375 25.6328125 C-89.99800781 26.62023437 -89.93742187 27.60765625 -89.875 28.625 C-88.49922639 28.50882356 -87.12438955 28.38154223 -85.75 28.25 C-84.98429687 28.18039063 -84.21859375 28.11078125 -83.4296875 28.0390625 C-80.43951898 27.55441745 -77.72401131 26.64073447 -74.875 25.625 C-74.90980469 24.44421875 -74.94460937 23.2634375 -74.98046875 22.046875 C-75.00861232 20.48959758 -75.03591187 18.93230475 -75.0625 17.375 C-75.08763672 16.59769531 -75.11277344 15.82039063 -75.13867188 15.01953125 C-75.14833984 14.26542969 -75.15800781 13.51132813 -75.16796875 12.734375 C-75.1836792 12.04311523 -75.19938965 11.35185547 -75.21557617 10.63964844 C-74.74861999 7.87741014 -73.85278398 6.6025184 -71.875 4.625 C-69.41748047 3.83544922 -69.41748047 3.83544922 -66.4921875 3.4296875 C-65.41598145 3.27218018 -64.33977539 3.11467285 -63.23095703 2.95239258 C-62.08224121 2.80310303 -60.93352539 2.65381348 -59.75 2.5 C-57.98245361 2.25189575 -57.98245361 2.25189575 -56.17919922 1.9987793 C-52.7465955 1.52292868 -49.31152593 1.07149829 -45.875 0.625 C-44.27596809 0.40548324 -42.6769986 0.18551069 -41.078125 -0.03515625 C-33.4881178 -1.04237359 -25.89234505 -1.63637545 -18.25 -2.0625 C-17.42000488 -2.11108154 -16.59000977 -2.15966309 -15.73486328 -2.2097168 C-3.79066306 -2.77981958 -3.79066306 -2.77981958 0 0 Z M-30.25 7.9375 C-31.80871826 8.14052734 -31.80871826 8.14052734 -33.39892578 8.34765625 C-36.55882626 8.76491959 -39.71695398 9.19395058 -42.875 9.625 C-43.84179688 9.75310059 -44.80859375 9.88120117 -45.8046875 10.01318359 C-48.45560301 10.36821692 -51.10291901 10.74254084 -53.75 11.125 C-54.54583496 11.23110596 -55.34166992 11.33721191 -56.16162109 11.4465332 C-58.60019767 11.78452027 -58.60019767 11.78452027 -61.875 12.625 C-64.15108233 16.0391235 -64.03988977 16.78210661 -63.5625 20.6875 C-63.46324219 21.56535156 -63.36398438 22.44320312 -63.26171875 23.34765625 C-62.98478136 25.64807196 -62.98478136 25.64807196 -61.875 27.625 C-56.07666326 27.6498905 -50.27835828 27.66794954 -44.47998047 27.67993164 C-42.51122495 27.68493176 -40.54247309 27.69173402 -38.57373047 27.70043945 C-35.72883191 27.71269573 -32.88398283 27.71827167 -30.0390625 27.72265625 C-28.73843369 27.73039818 -28.73843369 27.73039818 -27.41152954 27.73829651 C-18.59394016 27.76168031 -18.59394016 27.76168031 -9.875 26.625 C-7.4793491 24.69911206 -7.4793491 24.69911206 -7.86328125 21.25390625 C-7.96044464 19.89761183 -8.06898878 18.54209602 -8.1875 17.1875 C-8.23583984 16.50623047 -8.28417969 15.82496094 -8.33398438 15.12304688 C-8.56745009 12.10572415 -8.91418824 9.50743528 -9.875 6.625 C-16.78929771 6.47530902 -23.39897072 7.03128507 -30.25 7.9375 Z M-119.875 21.625 C-120.71598656 25.64304691 -120.92904945 28.64303543 -119.875 32.625 C-113.26520814 32.87442611 -107.3642239 31.92284478 -100.875 30.625 C-101.865 26.995 -102.855 23.365 -103.875 19.625 C-109.42208616 19.3330481 -114.49472975 20.43411014 -119.875 21.625 Z M-39.875 36.625 C-39.37355469 37.17671875 -38.87210937 37.7284375 -38.35546875 38.296875 C-36.51365418 41.19323776 -36.70287734 42.52669799 -37.1875 45.875 C-37.30738281 46.76703125 -37.42726563 47.6590625 -37.55078125 48.578125 C-37.65777344 49.25359375 -37.76476562 49.9290625 -37.875 50.625 C-38.865 50.625 -39.855 50.625 -40.875 50.625 C-43.82547835 46.01487758 -45.4247272 43.25970383 -44.875 37.625 C-44.215 37.295 -43.555 36.965 -42.875 36.625 C-68.08168608 36.17734027 -93.09679231 37.82786945 -118.16983032 40.25305176 C-119.88377194 40.41709324 -121.59828648 40.57525961 -123.31332397 40.72741699 C-125.7085587 40.9427387 -128.10004357 41.18264701 -130.4921875 41.4296875 C-131.2114592 41.49020294 -131.9307309 41.55071838 -132.67179871 41.61306763 C-134.88966682 41.81642602 -134.88966682 41.81642602 -137.875 42.625 C-140.27631524 45.94941808 -140.11730925 49.13997565 -140.10205078 53.13769531 C-140.10234283 53.78201508 -140.10263489 54.42633484 -140.10293579 55.09017944 C-140.10154694 57.21130021 -140.08600716 59.3320659 -140.0703125 61.453125 C-140.06658078 62.92714242 -140.06373456 64.40116232 -140.06173706 65.87518311 C-140.05411311 69.74844247 -140.03447535 73.62155105 -140.0123291 77.49475098 C-139.99184394 81.4496049 -139.98272964 85.40448327 -139.97265625 89.359375 C-139.95122821 97.11465196 -139.91710732 104.86980482 -139.875 112.625 C-136.94907516 114.08796242 -134.461405 113.64645084 -131.19921875 113.5390625 C-130.52568359 113.51809509 -129.85214844 113.49712769 -129.15820312 113.4755249 C-126.95943226 113.40552965 -124.76100729 113.32780062 -122.5625 113.25 C-121.05771006 113.20098059 -119.55290851 113.15231622 -118.0480957 113.10400391 C-108.70006725 112.79627013 -99.35598942 112.42145339 -90.02026367 111.84228516 C-86.40593992 111.63775101 -83.35199107 111.62716671 -79.875 112.625 C-81.875 115.625 -81.875 115.625 -84.88671875 116.5390625 C-86.09972656 116.77367187 -87.31273437 117.00828125 -88.5625 117.25 C-89.76261719 117.48976563 -90.96273437 117.72953125 -92.19921875 117.9765625 C-98.48316878 119.08510204 -104.61660614 119.79072757 -110.99609375 119.94140625 C-111.74085464 119.96218735 -112.48561554 119.98296844 -113.25294495 120.00437927 C-115.60604625 120.0691821 -117.95924843 120.12843365 -120.3125 120.1875 C-121.91862976 120.2307513 -123.52474973 120.27436757 -125.13085938 120.31835938 C-129.04547249 120.42479122 -132.96018591 120.52624851 -136.875 120.625 C-138.45702599 123.78905198 -137.86284035 127.106834 -137.6875 130.5625 C-137.6246582 131.82380737 -137.6246582 131.82380737 -137.56054688 133.1105957 C-137.00343593 142.54461421 -135.94134345 151.92527509 -134.875 161.3125 C-134.78546051 162.11009735 -134.69592102 162.9076947 -134.60366821 163.72946167 C-134.34555674 166.0117398 -134.08052157 168.29308533 -133.8125 170.57421875 C-133.69372749 171.61977936 -133.69372749 171.61977936 -133.57255554 172.6864624 C-133.4118875 175.94023353 -133.4118875 175.94023353 -131.875 178.625 C-130.38003605 178.75881838 -128.8792443 178.82854621 -127.37890625 178.87109375 C-125.94901367 178.92040039 -125.94901367 178.92040039 -124.49023438 178.97070312 C-122.52154081 179.02990248 -120.55279271 179.08732751 -118.58398438 179.14257812 C-113.32302958 179.32686802 -108.15778807 179.68878944 -102.93511963 180.36677551 C-90.03555367 182.0123534 -77.17390864 181.93120845 -64.1875 181.875 C-62.93322205 181.87223053 -61.67894409 181.86946106 -60.38665771 181.86660767 C-24.63422575 181.77510802 11.07215582 180.47685446 46.75 178.1875 C48.10699005 178.10440079 48.10699005 178.10440079 49.49139404 178.0196228 C67.5539786 177.79920516 67.5539786 177.79920516 83.125 170.625 C83.49647767 167.71299283 83.5924327 165.22066391 83.5 162.3125 C83.48710937 161.46397461 83.47421875 160.61544922 83.4609375 159.74121094 C83.16707638 146.68734912 82.07157939 133.64046665 81.125 120.625 C65.615 120.625 50.105 120.625 34.125 120.625 C33.135 123.595 32.145 126.565 31.125 129.625 C26.67946302 141.54629713 19.9416578 149.34298425 8.3984375 154.94921875 C-6.63484046 160.6015726 -25.03868584 159.05934067 -39.875 153.625 C-40.69613281 153.32464844 -41.51726562 153.02429688 -42.36328125 152.71484375 C-44.60984617 151.79307377 -46.72685335 150.757182 -48.875 149.625 C-49.83019531 149.13257813 -50.78539062 148.64015625 -51.76953125 148.1328125 C-64.35876904 141.26019715 -71.66015104 132.86388738 -76.875 119.625 C-80.29134947 105.00062684 -78.32256286 89.42988576 -71.1875 76.3125 C-64.28091695 65.68566274 -53.36790661 58.86685265 -41.08618164 56 C-22.33106535 52.81927143 -4.50505411 57.10134949 11.140625 67.66015625 C26.94522926 79.82263802 32.26992499 93.78583082 35.125 112.625 C36.05054688 112.5528125 36.97609375 112.480625 37.9296875 112.40625 C48.45530081 111.65728641 58.92487145 111.54946836 69.47607422 111.66210938 C70.5538916 111.67048828 71.63170898 111.67886719 72.7421875 111.6875 C73.70753418 111.69910156 74.67288086 111.71070313 75.66748047 111.72265625 C78.26275602 111.73369777 78.26275602 111.73369777 81.125 110.625 C83.21767946 95.59754505 83.54990315 80.65525237 83.75 65.5 C83.78828309 63.07681048 83.82734034 60.65363306 83.8671875 58.23046875 C83.96203301 52.36208849 84.04738819 46.4936322 84.125 40.625 C80.56151819 39.03536217 77.53773036 38.30532535 73.65234375 38.02734375 C72.05229492 37.90842773 72.05229492 37.90842773 70.41992188 37.78710938 C69.31197266 37.71298828 68.20402344 37.63886719 67.0625 37.5625 C66.01255859 37.48451172 64.96261719 37.40652344 63.88085938 37.32617188 C60.2967832 37.06879905 56.71159238 36.84450433 53.125 36.625 C52.45370056 36.58016479 51.78240112 36.53532959 51.09075928 36.48913574 C35.49878343 35.45983551 19.90263905 35.47010532 4.28466797 35.49462891 C0.57997082 35.50038937 -3.12465484 35.49699076 -6.82934952 35.49105644 C-9.7205458 35.48743178 -12.61172526 35.48859707 -15.50292206 35.49118423 C-17.52573189 35.49216217 -19.54854241 35.48916072 -21.5713501 35.48605347 C-27.76677005 35.50185116 -33.75192838 35.65581843 -39.875 36.625 Z M-57.875 72.625 C-67.10750212 85.14699218 -69.10758173 99.4134913 -67.875 114.625 C-66.08004895 124.56999908 -60.1195614 131.48583077 -52.3359375 137.62890625 C-38.61779086 146.99690315 -18.87706425 153.12909495 -2.25390625 150.15625 C7.35339029 147.6995897 14.38620477 141.56877762 20.125 133.625 C26.43322157 122.93443136 27.37033605 110.64295294 24.40625 98.73828125 C22.22056402 91.98338105 18.90720689 86.83822124 14.125 81.625 C13.64804688 81.09390625 13.17109375 80.5628125 12.6796875 80.015625 C1.29653848 68.93046418 -15.65082524 64.69145857 -31 64.25 C-40.25122283 64.49097183 -51.2821028 65.3745435 -57.875 72.625 Z " fill="#000000" transform="translate(229.875,59.375)"/>
<path d="M0 0 C7.87714317 6.16638598 13.08716919 14.89081649 14.41015625 24.88671875 C15.20206293 36.50135009 14.08342621 46.23222296 7.203125 55.84765625 C1.3901324 62.45851058 -6.70681008 66.21649972 -15.3671875 67.203125 C-26.95597181 67.67520426 -37.05579589 64.31805637 -46.1484375 57.14453125 C-55.04874701 48.91352501 -59.75760524 37.55348915 -60.79296875 25.52734375 C-60.97659756 16.16227436 -58.65963233 8.29539694 -52.12890625 1.328125 C-37.76479908 -12.19301813 -15.42778025 -10.58856285 0 0 Z M-41.58984375 6.88671875 C-47.68858337 12.98545837 -51.27482696 21.22375691 -51.58984375 29.88671875 C-50.74920513 39.56300589 -45.26289193 46.8379656 -38.390625 53.375 C-35.59045124 55.72568817 -32.91802855 57.35063346 -29.58984375 58.88671875 C-28.10484375 58.39171875 -28.10484375 58.39171875 -26.58984375 57.88671875 C-26.98816406 57.29246094 -27.38648438 56.69820312 -27.796875 56.0859375 C-38.56855967 39.23388581 -36.52469393 21.60067881 -32.58984375 2.88671875 C-36.71147305 2.88671875 -38.32904005 4.40850793 -41.58984375 6.88671875 Z M-11.58984375 5.88671875 C-11.44536392 7.38684972 -11.2991716 8.88681577 -11.15234375 10.38671875 C-11.06210938 11.3096875 -10.971875 12.23265625 -10.87890625 13.18359375 C-10.64820275 15.34098322 -10.3491965 17.49103372 -10.02734375 19.63671875 C-8.41148773 32.90792969 -10.159674 46.03190785 -13.58984375 58.88671875 C-7.66990131 58.19025493 -3.95164805 55.31186278 0.09765625 51.07421875 C5.61335978 43.47149226 6.3564973 37.19784445 5.41015625 27.88671875 C3.703615 19.72966623 -0.21630871 13.2870138 -6.58984375 7.88671875 C-9.22591053 6.6381474 -9.22591053 6.6381474 -11.58984375 5.88671875 Z " fill="#000000" transform="translate(231.58984375,135.11328125)"/>
<path d="M0 0 C1.175625 0.495 2.35125 0.99 3.5625 1.5 C3.1875 3.9375 3.1875 3.9375 2.5625 6.5 C-3.61027104 9.58638552 -15.10223921 9.79231344 -21.69140625 7.828125 C-23.625 7 -23.625 7 -26.4375 5.5 C-26.4375 4.18 -26.4375 2.86 -26.4375 1.5 C-18.44682419 -3.13974724 -8.68019726 -2.89339909 0 0 Z " fill="#000000" transform="translate(379.4375,126.5)"/>
<path d="M0 0 C0.66 0.66 1.32 1.32 2 2 C1.9203802 5.12507723 0.93148751 6.06632837 -1.328125 8.25390625 C-2.29234375 9.01574219 -3.2565625 9.77757812 -4.25 10.5625 C-5.20390625 11.32691406 -6.1578125 12.09132813 -7.140625 12.87890625 C-14.96198055 18.68081344 -14.96198055 18.68081344 -20 18 C-20.66 17.34 -21.32 16.68 -22 16 C-21.66034227 10.71353225 -18.93795743 8.35728767 -15.2578125 4.875 C-10.7614485 1.14099529 -5.92475392 -2.43960456 0 0 Z " fill="#000000" transform="translate(288,32)"/>
<path d="M0 0 C3.10622449 0.25185604 4.56696545 0.49201716 6.625 2.90625 C8.59391683 7.33631287 8.5687846 11.51300591 8.6875 16.3125 C8.73874023 17.70952148 8.73874023 17.70952148 8.79101562 19.13476562 C8.87315941 21.42305672 8.94241662 23.71098104 9 26 C7.68 26.33 6.36 26.66 5 27 C-0.66593841 20.14029469 -3.85268234 14.20896931 -3 5 C-1.5 2.0625 -1.5 2.0625 0 0 Z " fill="#000000" transform="translate(203,286)"/>
<path d="M0 0 C1 1 1 1 1.375 3.75 C1 7 1 7 -0.875 9.75 C-5.02321029 12.73671141 -8.89313671 13.84930567 -14 14 C-17.125 12.625 -17.125 12.625 -19 11 C-18.51505547 4.57448494 -18.51505547 4.57448494 -16.375 2.1875 C-10.68284092 -0.65857954 -6.24086741 -1.37299083 0 0 Z " fill="#000000" transform="translate(276,114)"/>
<path d="M0 0 C5.08506101 3.83483325 8.1206902 10.03805166 10 16 C10.25 19.5625 10.25 19.5625 10 22 C8.68 22.33 7.36 22.66 6 23 C1.9478178 18.5152815 -1.6684944 14.05469816 -5 9 C-5.7425 8.29875 -6.485 7.5975 -7.25 6.875 C-9 5 -9 5 -9 1 C-5.76645861 -0.6167707 -3.57239465 -0.47631929 0 0 Z " fill="#000000" transform="translate(316,262)"/>
<path d="M0 0 C5.61226329 4.17322142 8.36978048 10.65493436 11 17 C11 17.99 11 18.98 11 20 C7.90194915 20.30490483 6.39760715 20.2600005 3.75390625 18.53125 C-6.1168437 9.38189176 -6.1168437 9.38189176 -9 4 C-9 2.68 -9 1.36 -9 0 C-5.64836666 -1.11721111 -3.35636995 -1.14607754 0 0 Z " fill="#000000" transform="translate(123,18)"/>
<path d="M0 0 C0.6875 1.75390625 0.6875 1.75390625 1 4 C-2.28961178 9.44300897 -7.54001554 13.86556447 -13 17 C-15.9375 16.8125 -15.9375 16.8125 -18 16 C-18.56878442 12.7498033 -18.46785315 10.70177973 -16.6171875 7.92578125 C-11.62540748 2.08042846 -8.06137303 -2.06221171 0 0 Z " fill="#000000" transform="translate(38,130)"/>
<path d="M0 0 C-1.83990244 4.75139641 -4.91144576 5.82254304 -9.3359375 7.89453125 C-14.84296226 10.17970428 -19.98712797 11.3006436 -26 11 C-26.33 10.01 -26.66 9.02 -27 8 C-23.11474585 3.50885826 -19.71080207 1.73548826 -14.0625 0.0625 C-13.02706055 -0.28651367 -13.02706055 -0.28651367 -11.97070312 -0.64257812 C-7.29752721 -2.08218208 -4.44858473 -2.01195773 0 0 Z " fill="#000000" transform="translate(54,195)"/>
<path d="M0 0 C7.37571355 0.56736258 14.80575104 4.80575104 20 10 C20.8125 12.75 20.8125 12.75 21 15 C19.296875 16.12109375 19.296875 16.12109375 17 17 C9.89933712 14.98331513 4.19998655 10.04021043 -1 5 C-0.67 3.35 -0.34 1.7 0 0 Z " fill="#000000" transform="translate(37,53)"/>
<path d="M0 0 C6.01704473 0.1253551 8.91148641 2.10037038 13.3984375 6.015625 C15.27345759 8.33882062 15.64613699 10.06799223 16 13 C13 15 13 15 10.3125 14.9375 C5.98300576 13.71217144 2.44141073 11.91825091 -1 9 C-2.125 6.4375 -2.125 6.4375 -2 4 C-1.0625 1.6875 -1.0625 1.6875 0 0 Z " fill="#000000" transform="translate(131,130)"/>
<path d="M0 0 C-0.78777979 5.87254026 -3.80912849 9.01608511 -8 13 C-12.15144242 15.71114607 -15.06950874 16.35217795 -20 16 C-19.72447126 12.35574253 -19.45337264 10.487525 -16.92578125 7.76953125 C-4.53314917 -1.51104972 -4.53314917 -1.51104972 0 0 Z " fill="#000000" transform="translate(345,56)"/>
<path d="M0 0 C2.60255561 1.09528402 3.8695901 2.03778036 6 4 C6.875 6.75 6.875 6.75 7 9 C0.61830956 9.23539022 -4.89577531 8.96207222 -11 7 C-13 5 -13 5 -13.125 1.875 C-13.08375 0.92625 -13.0425 -0.0225 -13 -1 C-9.05615509 -2.97192245 -4.10439712 -1.07523643 0 0 Z " fill="#000000" transform="translate(353,177)"/>
<path d="M0 0 C2.19644379 1.63967083 2.90259391 2.56947995 3.51171875 5.26171875 C3.59873047 6.46248047 3.59873047 6.46248047 3.6875 7.6875 C3.78611328 8.89986328 3.78611328 8.89986328 3.88671875 10.13671875 C3.92410156 10.75160156 3.96148437 11.36648437 4 12 C1.875 12.75 1.875 12.75 -1 13 C-4.76080917 10.96916305 -8.01164783 8.85974244 -10 5 C-9.8125 2.3125 -9.8125 2.3125 -9 0 C-5.85000502 -1.57499749 -3.36459118 -0.70833498 0 0 Z " fill="#000000" transform="translate(156,111)"/>
<path d="M0 0 C2.4375 1.1875 2.4375 1.1875 5 3 C6.3273206 6.96164567 5.85220072 9.42650527 4.3125 13.25 C3.81169922 14.55710937 3.81169922 14.55710937 3.30078125 15.890625 C2 18 2 18 -0.08203125 18.859375 C-0.71496094 18.90578125 -1.34789063 18.9521875 -2 19 C-3.92382741 17.07617259 -3.21841339 13.74338341 -3.25 11.1875 C-3.27578125 9.94355469 -3.3015625 8.69960938 -3.328125 7.41796875 C-2.98686764 3.86320457 -2.42665143 2.53521215 0 0 Z " fill="#000000" transform="translate(97,276)"/>
<path d="M0 0 C1 1 1 1 1.25 4.25 C0.98687867 8.19681997 0.49315704 9.97259502 -2 13 C-4.1875 13.8125 -4.1875 13.8125 -6 14 C-8.19007834 11.62741513 -8.965678 10.23535087 -9.4375 7 C-9 4 -9 4 -7.3125 1.625 C-4.59797415 -0.28250465 -3.2488448 -0.43903308 0 0 Z " fill="#000000" transform="translate(231,101)"/>
<path d="M0 0 C3 1 3 1 4 3 C4.12176503 4.80948495 4.17545792 6.62396271 4.1875 8.4375 C4.20167969 9.40558594 4.21585938 10.37367187 4.23046875 11.37109375 C4 14 4 14 2 17 C0.68 16.67 -0.64 16.34 -2 16 C-3.45295405 6.00437637 -3.45295405 6.00437637 -1.5625 1.8125 C-1.046875 1.214375 -0.53125 0.61625 0 0 Z " fill="#000000" transform="translate(211,19)"/>
</svg>
