<?xml version="1.0" encoding="UTF-8"?>
<svg version="1.1" xmlns="http://www.w3.org/2000/svg" width="400" height="370">
<path d="M0 0 C1.13267713 -0.02897716 2.26535425 -0.05795431 3.43235493 -0.08780956 C9.64735842 -0.1262049 13.50464975 0.04559661 18.17504883 4.32543945 C27.06522598 20.33507398 25.75593663 48.73657021 27.55395508 66.7668457 C27.71246256 68.34772854 27.71246256 68.34772854 27.87417221 69.9605484 C30.5813385 97.1473791 32.5483271 124.38899227 34.51556396 151.63745117 C35.36483114 163.39345167 36.22418051 175.14870695 37.08911133 186.90356445 C37.17972084 188.14051559 37.27033035 189.37746674 37.36368561 190.65190125 C38.46837775 205.68711163 39.6327233 220.70411522 41.33120728 235.68560791 C43.56884654 255.79775846 43.56884654 255.79775846 39.17504883 261.32543945 C34.86519879 263.434515 31.67862609 263.38101892 26.95806885 262.89564514 C19.17448643 262.19096296 11.39291716 261.96804864 3.58422852 261.76464844 C2.80448465 261.74354346 2.02474078 261.72243849 1.22136831 261.70069396 C-14.479804 261.28238125 -30.17127136 261.21674196 -45.8769455 261.28083992 C-50.5428946 261.29983233 -55.20883752 261.30890636 -59.87481689 261.3167572 C-73.11099685 261.34040868 -86.34712731 261.37661882 -99.58325195 261.42138672 C-106.96563097 261.44627003 -114.34799192 261.46342083 -121.730407 261.47294611 C-125.59303069 261.47829559 -129.45555584 261.48726433 -133.31813812 261.5063343 C-157.53121443 261.62337612 -181.51314779 260.61046742 -205.63745117 258.38793945 C-206.6986939 258.29553057 -206.6986939 258.29553057 -207.78137589 258.20125484 C-210.4101839 257.9087392 -212.45712019 257.55771367 -214.71166992 256.1340332 C-223.46393275 241.91544482 -219.0276724 209.28765421 -219.26245117 192.88793945 C-219.64997636 166.13989983 -220.3222521 139.4017274 -221.06521606 112.66134644 C-221.19679854 107.92114008 -221.32468173 103.1808576 -221.44918823 98.44046021 C-221.59858575 92.76112073 -221.75556587 87.08203737 -221.91802979 81.4030571 C-221.97728597 79.29366139 -222.03415175 77.18419684 -222.08834839 75.07466507 C-222.37077145 64.16750803 -222.8410684 53.36966958 -224.15516567 42.53191662 C-224.68731396 38.1070287 -225.09106395 33.7914592 -224.82495117 29.32543945 C-224.16495117 28.66543945 -223.50495117 28.00543945 -222.82495117 27.32543945 C-216.65454649 27.54981781 -216.65454649 27.54981781 -214.20385742 29.84106445 C-212.22881073 33.39950551 -211.78963824 36.95664976 -211.19995117 40.95043945 C-210.54313418 46.29384573 -210.54313418 46.29384573 -208.82495117 51.32543945 C-201.82356283 50.85760475 -195.15105333 49.62246074 -188.31713867 48.04418945 C-181.31703603 46.60345244 -174.37738826 46.13144295 -167.25463867 45.8605957 C-165.38533255 45.78310624 -163.51602928 45.70554819 -161.64672852 45.62792969 C-160.67644714 45.58884491 -159.70616577 45.54976013 -158.70648193 45.50949097 C-144.52286051 44.93605906 -130.35781784 44.30426187 -116.19995117 43.26293945 C-103.26395376 42.3253015 -90.34288574 41.90910073 -77.38000488 41.60069275 C-76.28734314 41.57465721 -76.28734314 41.57465721 -75.17260742 41.5480957 C-74.45061157 41.53102066 -73.72861572 41.51394562 -72.98474121 41.49635315 C-68.7387242 41.3905182 -64.50051702 41.22945521 -60.25854492 41.0090332 C-37.77992134 39.86389578 -15.31089957 40.70243868 7.17504883 41.32543945 C7.08416992 40.5890625 6.99329102 39.85268555 6.8996582 39.09399414 C6.48896915 35.7547762 6.08196913 32.41511867 5.67504883 29.07543945 C5.53196289 27.91657227 5.38887695 26.75770508 5.24145508 25.5637207 C5.10610352 24.44868164 4.97075195 23.33364258 4.83129883 22.18481445 C4.70561523 21.15839844 4.57993164 20.13198242 4.45043945 19.07446289 C4.17504883 16.32543945 4.17504883 16.32543945 4.17504883 12.32543945 C3.19868973 12.37919739 2.22233063 12.43295532 1.21638489 12.48834229 C-170.90614294 21.95768677 -170.90614294 21.95768677 -218.82495117 22.32543945 C-219.89802017 22.33909546 -219.89802017 22.33909546 -220.99276733 22.35302734 C-226.27117917 22.39767074 -229.18436006 21.64573501 -233.82495117 19.32543945 C-233.82495117 18.00543945 -233.82495117 16.68543945 -233.82495117 15.32543945 C-210.4061783 9.68008064 -185.1664459 9.35640363 -161.19213867 7.89575195 C-159.69417472 7.80323686 -159.69417472 7.80323686 -158.16594887 7.70885277 C-132.59314223 6.13320799 -107.00646698 4.81692356 -81.41748047 3.53564453 C-75.44209951 3.23616773 -69.46710021 2.92999158 -63.49224061 2.62034875 C-57.5882688 2.31478267 -51.68392601 2.0169316 -45.77942848 1.72171593 C-43.33151885 1.59835419 -40.8837155 1.47285915 -38.43604088 1.3449192 C-25.62979486 0.67792657 -12.82321915 0.1729239 0 0 Z M-105.41333008 52.14672852 C-117.53530696 52.98136116 -129.65402207 53.61399582 -141.79370117 54.11450195 C-142.57993803 54.147064 -143.36617489 54.17962605 -144.17623711 54.21317482 C-152.04455628 54.53800345 -159.91321385 54.8524603 -167.7826252 55.14967346 C-170.71770723 55.26175063 -173.65256481 55.37911293 -176.58740234 55.49740219 C-178.58818583 55.57602814 -180.58925795 55.64720244 -182.59033203 55.7180481 C-191.75612925 56.08895067 -200.74725377 57.06726354 -209.82495117 58.32543945 C-209.52519101 74.79394337 -209.21466151 91.26222491 -208.89459229 107.73034668 C-208.82759823 111.18878998 -208.76152308 114.64724986 -208.69555664 118.10571289 C-208.59659458 123.26227138 -208.49248963 128.41870146 -208.38424683 133.57507324 C-208.3447842 135.4886957 -208.30695707 137.4023526 -208.27078247 139.31604004 C-208.22032484 141.96772372 -208.16403632 144.61922039 -208.10620117 147.27075195 C-208.09266098 148.04953705 -208.07912079 148.82832214 -208.06517029 149.63070679 C-207.99111298 152.77610578 -207.82669137 155.32021887 -206.82495117 158.32543945 C-205.26145967 158.23739818 -203.69909728 158.129208 -202.13745117 158.01293945 C-201.26733398 157.95493164 -200.3972168 157.89692383 -199.50073242 157.8371582 C-196.11962816 157.19055286 -194.46653269 156.58903857 -191.82495117 154.32543945 C-190.23604721 151.23363392 -189.17768049 147.9914337 -188.07495117 144.70043945 C-182.99394266 130.5338368 -176.90075743 117.64815187 -166.82495117 106.32543945 C-166.18944336 105.54813477 -165.55393555 104.77083008 -164.89916992 103.9699707 C-157.12668307 94.6710235 -147.47116285 87.74961378 -135.25854492 85.9465332 C-124.27346671 85.41361079 -116.25882713 90.72266063 -108.37133789 97.87426758 C-104.15976204 101.82652632 -100.12297945 105.95711399 -96.07104492 110.0715332 C-91.29735431 114.89769713 -86.27947826 119.28813666 -80.82495117 123.32543945 C-77.29002659 121.9039485 -76.04447813 120.42527124 -74.19995117 117.13793945 C-70.72585872 111.66227597 -66.29932228 108.65141205 -60.82495117 105.32543945 C-59.81432617 104.66543945 -58.80370117 104.00543945 -57.76245117 103.32543945 C-52.77662622 101.62813734 -48.47519358 102.08573122 -43.70385742 104.31762695 C-32.85756288 111.04431971 -23.7026074 121.28371977 -14.82495117 130.32543945 C-14.08374023 130.98543945 -13.3425293 131.64543945 -12.57885742 132.32543945 C-10.82495117 134.32543945 -10.82495117 134.32543945 -10.82495117 138.32543945 C-15.3274037 138.13783726 -17.9665907 137.50038472 -21.53979492 134.70825195 C-22.23572754 134.16700684 -22.93166016 133.62576172 -23.64868164 133.06811523 C-27.25248594 130.18232265 -30.83304319 127.27189892 -34.38745117 124.32543945 C-35.10352539 123.73504883 -35.81959961 123.1446582 -36.55737305 122.53637695 C-37.61988281 121.65852539 -37.61988281 121.65852539 -38.70385742 120.76293945 C-39.39624512 120.19446289 -40.08863281 119.62598633 -40.80200195 119.0402832 C-42.14458176 117.90218514 -43.45671482 116.72711356 -44.73461914 115.5168457 C-48.08574784 112.21399132 -48.08574784 112.21399132 -52.48901367 111.16918945 C-55.44032314 112.63003829 -57.05948273 114.32178684 -59.19995117 116.82543945 C-59.9759668 117.72391602 -60.75198242 118.62239258 -61.55151367 119.5480957 C-63.62264336 122.07829021 -65.60994064 124.6500761 -67.57495117 127.26293945 C-70.98962134 131.69574522 -73.43670448 133.91208906 -79.07495117 134.88793945 C-89.74409901 133.28756728 -98.42835951 122.8378431 -105.66479492 115.3996582 C-115.61744044 104.89641339 -115.61744044 104.89641339 -127.82495117 97.32543945 C-128.6525293 96.94129883 -129.48010742 96.5571582 -130.33276367 96.16137695 C-135.28330856 94.50084936 -139.80152109 96.33878237 -144.34838867 98.5559082 C-163.89756399 109.77412727 -177.77379016 133.17195643 -184.82495117 154.32543945 C-170.18405538 154.69316428 -155.62998917 153.67918068 -141.02929688 152.73016357 C-133.61595186 152.24919378 -126.20094715 151.79472442 -118.78588867 151.34106445 C-117.67758068 151.27315264 -117.67758068 151.27315264 -116.54688263 151.20386887 C-103.81095028 150.42552815 -91.07364676 149.7347978 -78.32495117 149.20043945 C-77.43621307 149.16291565 -76.54747498 149.12539185 -75.63180542 149.08673096 C-63.67939171 148.59175523 -51.72397583 148.22752074 -39.76610947 147.89676285 C-37.48354768 147.83342546 -35.20101484 147.76912697 -32.91848755 147.70455933 C-31.39642444 147.66164292 -29.87436023 147.61876573 -28.35229492 147.57592773 C-27.59859053 147.55470541 -26.84488613 147.53348309 -26.06834221 147.51161766 C-21.57644206 147.3863459 -17.0844167 147.27100085 -12.59206295 147.16328239 C-9.78937032 147.09446239 -6.98690722 147.01831936 -4.18445015 146.94054794 C-2.24567962 146.88925267 -0.30666477 146.84747054 1.63233948 146.80593872 C2.80344772 146.77241302 3.97455597 146.73888733 5.18115234 146.7043457 C6.70724876 146.66676147 6.70724876 146.66676147 8.26417542 146.62841797 C11.49161273 146.29248987 14.17475489 145.55476405 17.17504883 144.32543945 C19.80609199 139.06335314 17.89441758 131.92041079 16.83520508 126.38793945 C14.76377924 114.77207199 13.7252457 103.06443533 12.61254883 91.32543945 C12.19667634 87.01273548 11.77759668 82.70034499 11.35864258 78.38793945 C11.25917328 77.35733398 11.15970398 76.32672852 11.05722046 75.26489258 C10.18451385 66.27483865 9.20714713 57.29846337 8.17504883 48.32543945 C-29.64509499 48.32543945 -67.68992262 49.52426785 -105.41333008 52.14672852 Z M-4.06323242 150.7355957 C-5.68205826 150.80683655 -5.68205826 150.80683655 -7.33358765 150.8795166 C-10.93520481 151.04264314 -14.53635381 151.2137218 -18.13745117 151.38793945 C-20.01758408 151.47856155 -20.01758408 151.47856155 -21.93569946 151.5710144 C-46.84817542 152.8022879 -71.70758766 154.65723561 -96.56936264 156.65220261 C-99.50702352 156.88750471 -102.44485508 157.12057462 -105.38272095 157.353302 C-110.05343571 157.72431603 -114.72345596 158.10312976 -119.39302444 158.48829651 C-121.12462379 158.63048197 -122.85638 158.77077186 -124.5882988 158.90901184 C-132.82671761 159.56955119 -140.76658583 160.4110271 -148.82495117 162.32543945 C-151.0743104 162.17462448 -153.254801 161.86438017 -155.48461914 161.5378418 C-159.84591999 161.14202167 -164.08242582 161.97056326 -168.38745117 162.63793945 C-177.97344593 164.03123432 -187.52239862 164.95363069 -197.19433594 165.50244141 C-198.15009521 165.56778076 -199.10585449 165.63312012 -200.09057617 165.70043945 C-201.35562988 165.77391602 -201.35562988 165.77391602 -202.64624023 165.84887695 C-205.35890127 166.44223356 -206.2643703 167.0278748 -207.82495117 169.32543945 C-208.33131606 172.01171956 -208.33131606 172.01171956 -208.33666992 175.06762695 C-208.37211914 176.2174707 -208.40756836 177.36731445 -208.4440918 178.55200195 C-208.46665039 179.75598633 -208.48920898 180.9599707 -208.51245117 182.20043945 C-208.54661133 183.36575195 -208.58077148 184.53106445 -208.6159668 185.73168945 C-208.71190084 189.26362852 -208.78498828 192.79236647 -208.82495117 196.32543945 C-208.83877838 197.1792218 -208.85260559 198.03300415 -208.86685181 198.91265869 C-208.96386757 209.50695104 -208.37168513 220.06193978 -207.82495117 230.63793945 C-207.72829976 232.55394011 -207.63194341 234.46995567 -207.53588867 236.38598633 C-207.30230731 241.03264939 -207.06474614 245.67909307 -206.82495117 250.32543945 C-206.01531198 250.32967139 -205.20567278 250.33390333 -204.37149906 250.33826351 C-184.50666207 250.44238169 -164.64185486 250.55112595 -144.77707005 250.66477871 C-135.16991273 250.71963717 -125.56275179 250.77303126 -115.95556641 250.82275391 C-107.56443968 250.86618672 -99.17333508 250.91259506 -90.78224319 250.962318 C-86.35516276 250.9884544 -81.92808535 251.0132773 -77.50097847 251.03451347 C-57.60036331 251.13100108 -37.72543146 251.41506294 -17.83576965 252.09797668 C-9.02836683 252.39818639 -0.22269967 252.54452854 8.58959961 252.56567383 C10.28365185 252.57239759 11.97768562 252.58649715 13.67163086 252.60668945 C16.21198281 252.63684759 18.75172677 252.64765533 21.29223633 252.65356445 C22.42615311 252.67208466 22.42615311 252.67208466 23.58297729 252.690979 C27.616357 252.68396572 27.616357 252.68396572 31.15869141 250.94726562 C32.6232712 248.61020016 32.32629982 247.10193271 31.98754883 244.38793945 C31.89086914 243.53329102 31.79418945 242.67864258 31.69458008 241.7980957 C31.39547368 239.79880558 31.08357332 237.80114863 30.7361145 235.80969238 C29.44834946 228.41698728 28.52704151 221.03576802 27.77270508 213.5715332 C27.51950515 211.14509514 27.26624812 208.71866304 27.01293945 206.29223633 C26.62535381 202.536783 26.23941465 198.78116785 25.85498047 195.02539062 C24.01716688 177.0285718 24.01716688 177.0285718 21.54614258 159.1105957 C21.36185448 157.9277726 21.36185448 157.9277726 21.17384338 156.72105408 C20.84680648 153.22638269 20.84680648 153.22638269 19.17504883 150.32543945 C11.45094325 149.95351125 3.65746434 150.39180456 -4.06323242 150.7355957 Z " fill="#000000" transform="translate(295.824951171875,54.674560546875)"/>
<path d="M0 0 C1.45265194 0.24482898 2.91226 0.45026997 4.375 0.625 C7.92637261 1.40204263 9.72366415 2.17463084 11.8125 5.1875 C17.58593309 16.09509332 19.18444915 29.15514949 19.125 41.3125 C19.12886719 42.12267578 19.13273437 42.93285156 19.13671875 43.76757812 C19.12676222 49.74647556 19.12676222 49.74647556 18 52 C10.29403972 53.59168695 2.23302215 53.65594239 -5.6015625 54.16210938 C-12.53169992 54.64206822 -19.32236789 55.41742712 -26.17407227 56.56933594 C-33.24554144 57.64700951 -39.63641389 57.60747512 -46 54 C-53.99995528 46.21056986 -53.12320575 33.67570214 -53.28320312 23.24804688 C-53.29287109 22.27931641 -53.30253906 21.31058594 -53.3125 20.3125 C-53.34150391 19.33216797 -53.37050781 18.35183594 -53.40039062 17.34179688 C-53.45401249 11.18353208 -53.03944092 5.90378869 -49 1 C-43.33684494 -2.58325919 -37.07543069 -2.81491658 -30.5 -3.3125 C-29.44079346 -3.39661133 -28.38158691 -3.48072266 -27.2902832 -3.56738281 C-7.37846987 -4.91897991 -7.37846987 -4.91897991 0 0 Z M-17.4921875 4.875 C-18.69101562 5.05546875 -19.88984375 5.2359375 -21.125 5.421875 C-22.3625 5.61265625 -23.6 5.8034375 -24.875 6 C-26.13570313 6.19078125 -27.39640625 6.3815625 -28.6953125 6.578125 C-31.79749503 7.04815266 -34.89900068 7.52223899 -38 8 C-40.59115346 14.91662477 -40.33128665 21.81323487 -40.3125 29.125 C-40.32861328 30.38699219 -40.34472656 31.64898437 -40.36132812 32.94921875 C-40.36197266 34.16480469 -40.36261719 35.38039063 -40.36328125 36.6328125 C-40.36626221 37.73512207 -40.36924316 38.83743164 -40.37231445 39.97314453 C-39.95802758 43.34122885 -38.93474267 45.24704439 -37 48 C-33.22910702 47.68821718 -29.45829724 47.37543844 -25.6875 47.0625 C-24.1087207 46.93198242 -24.1087207 46.93198242 -22.49804688 46.79882812 C-17.37052771 46.37284961 -12.24660007 45.92978514 -7.125 45.4375 C-3.17444354 45.07471932 0.71702303 44.89078851 4.6875 44.9375 C6.20923828 44.95103516 6.20923828 44.95103516 7.76171875 44.96484375 C8.50035156 44.97644531 9.23898437 44.98804688 10 45 C11.51727166 42.60776952 12.03519016 41.35977635 11.75561523 38.50146484 C11.4105896 37.12015381 11.4105896 37.12015381 11.05859375 35.7109375 C10.80400391 34.68613281 10.54941406 33.66132813 10.28710938 32.60546875 C9.86655273 31.00638672 9.86655273 31.00638672 9.4375 29.375 C9.18419922 28.33214844 8.93089844 27.28929687 8.66992188 26.21484375 C5.69955806 14.13634685 5.69955806 14.13634685 -1.9375 4.875 C-7.20723661 3.36936097 -12.13565113 4.05876589 -17.4921875 4.875 Z " fill="#000000" transform="translate(285,226)"/>
<path d="M0 0 C3.64575537 3.64575537 4.125 8.45017592 4.125 13.4375 C4.08375 14.613125 4.0425 15.78875 4 17 C1.125 16.6875 1.125 16.6875 -2 16 C-2.99 14.515 -2.99 14.515 -4 13 C-7.57104891 14.08213603 -9.7687975 15.6104892 -12.4375 18.125 C-14.89579483 20.30067091 -15.80683788 20.96136758 -19.125 21.625 C-23.94949474 20.5761968 -26.32051117 18.01923325 -29 14 C-33.05228301 15.350761 -34.54568797 17.83819702 -37.18359375 21.08984375 C-39.05413535 23.05692943 -40.4780134 24.03660112 -43 25 C-49.98468463 25 -53.75965983 20.18289555 -58.4375 15.625 C-58.953125 15.08875 -59.46875 14.5525 -60 14 C-63.08468061 16.90322881 -65.581039 19.76569348 -68 23.25 C-69.93443022 25.8923918 -70.65884735 26.86043755 -73.75 28.125 C-76 28 -76 28 -78 26 C-77.8706789 18.62869742 -75.37557762 12.54171343 -70.25390625 7.16796875 C-63.24734097 0.97506912 -63.24734097 0.97506912 -58.53515625 1.02734375 C-54.98688519 2.3886989 -53.66840278 4.52459239 -51.4375 7.5625 C-49.29509034 10.59521248 -49.29509034 10.59521248 -47 13 C-45.68 13 -44.36 13 -43 13 C-41.12093491 11.12791767 -41.12093491 11.12791767 -39.5 8.6875 C-36.53757052 4.50643476 -34.22489213 1.4733813 -29.0625 0.375 C-25.56249405 1.08928693 -25.1588163 1.60947076 -23.125 4.375 C-21 7.62264151 -21 7.62264151 -21 10 C-16.26872454 8.66932878 -13.30327896 5.80856057 -9.76953125 2.55859375 C-6.56016267 -0.26820109 -4.20837981 -0.26302374 0 0 Z " fill="#000000" transform="translate(203,227)"/>
<path d="M0 0 C5.40811679 3.13815472 10.07258828 6.86842148 12 13 C12.7659305 18.01844043 12.5904739 21.77363114 10.375 26.375 C6.6357817 30.50782023 2.52543306 33.66909293 -3.1640625 34.203125 C-11.28398468 34.35779018 -17.88151657 33.36817437 -23.9375 27.625 C-28.63457093 22.76136627 -29.29257356 18.14214572 -29.3125 11.5 C-29.32925781 10.2109375 -29.34601563 8.921875 -29.36328125 7.59375 C-28.98175744 3.81953601 -28.28637669 1.9815221 -26 -1 C-17.64210018 -6.77093083 -8.53373769 -4.0654827 0 0 Z M-17.875 7 C-19.67514393 10.20025587 -18.83977897 12.5209157 -18 16 C-16.24091945 19.76945832 -14.87487388 21.51497703 -11 23 C-8.62698611 23.02977744 -8.62698611 23.02977744 -6.25 22.625 C-5.05117188 22.45871094 -5.05117188 22.45871094 -3.828125 22.2890625 C-3.22484375 22.19367188 -2.6215625 22.09828125 -2 22 C-1.3444334 20.14549895 -1.3444334 20.14549895 -1 18 C-3.90017533 12.54767037 -7.81198438 8.18623837 -13.6875 6 C-16.01409314 5.81862745 -16.01409314 5.81862745 -17.875 7 Z " fill="#000000" transform="translate(276,121)"/>
<path d="M0 0 C3.12562381 2.78588209 3.33495466 3.61753464 3.875 7.5625 C-5.58108581 7.94004428 -14.68670268 6.95207702 -24.02661133 5.64599609 C-26.44874955 5.31094386 -28.87328722 5.00073785 -31.29882812 4.69140625 C-32.86218448 4.47806167 -34.42534403 4.2632688 -35.98828125 4.046875 C-36.70196365 3.95815125 -37.41564606 3.86942749 -38.1509552 3.77801514 C-43.25233139 3.03093354 -46.7758607 1.3353292 -51.125 -1.4375 C-50.795 -3.0875 -50.465 -4.7375 -50.125 -6.4375 C-35.12684762 -12.15108186 -13.34640813 -8.60883932 0 0 Z " fill="#000000" transform="translate(70.125,346.4375)"/>
<path d="M0 0 C0.8125 2.125 0.8125 2.125 1 4 C-2.20166083 6.13444055 -3.1942127 6.28179298 -6.8984375 6.4140625 C-7.91832764 6.45281494 -8.93821777 6.49156738 -9.98901367 6.53149414 C-11.6650769 6.57777954 -11.6650769 6.57777954 -13.375 6.625 C-14.53427002 6.66294678 -15.69354004 6.70089355 -16.88793945 6.73999023 C-33.25297201 7.20999866 -49.63023648 7.08752444 -66 7 C-65.67 5.68 -65.34 4.36 -65 3 C-55.6698816 0.70664961 -46.63072291 -0.58086775 -37.04101562 -1.08081055 C-35.00046153 -1.18747587 -32.96135606 -1.31015692 -30.921875 -1.43554688 C-5.63515566 -2.93178672 -5.63515566 -2.93178672 0 0 Z " fill="#000000" transform="translate(201,265)"/>
<path d="M0 0 C8.48312205 3.06444564 13.71422804 19.95378976 17.51953125 27.91015625 C17.82874512 28.5546875 18.13795898 29.19921875 18.45654297 29.86328125 C23.51953125 40.46570993 23.51953125 40.46570993 23.51953125 42.91015625 C19.93899333 43.24322954 18.07682598 43.2837371 15.04296875 41.25 C12.3393214 38.74305765 10.70370159 36.39353376 8.83203125 33.22265625 C8.50460937 32.66884277 8.1771875 32.1150293 7.83984375 31.54443359 C7.12256868 30.33019889 6.40868214 29.11395771 5.69775391 27.89599609 C4.42475759 25.75041962 3.10642342 23.63715151 1.78125 21.5234375 C0.86016215 20.02766072 -0.06041708 18.5315706 -0.98046875 17.03515625 C-1.42608154 16.33430908 -1.87169434 15.63346191 -2.33081055 14.91137695 C-5.01661836 10.47053902 -6.283808 7.25236224 -5.48046875 1.91015625 C-2.48046875 -0.08984375 -2.48046875 -0.08984375 0 0 Z " fill="#000000" transform="translate(359.48046875,236.08984375)"/>
<path d="M0 0 C10.25710711 -0.63489659 19.79043025 0.22707214 29.875 2.25 C30.9074585 2.45455811 31.93991699 2.65911621 33.00366211 2.86987305 C51.52688533 6.79032799 51.52688533 6.79032799 55 12 C45.60706478 16.69646761 26.51915687 12.03787655 16.3125 10.625 C15.45938232 10.51124023 14.60626465 10.39748047 13.72729492 10.28027344 C8.99207973 9.56563184 5.15506674 8.53057803 1 6 C-0.4375 3.9375 -0.4375 3.9375 -1 2 C-0.67 1.34 -0.34 0.68 0 0 Z " fill="#000000" transform="translate(86,21)"/>
<path d="M0 0 C3.18382388 1.43139887 5.53260434 2.53260434 8 5 C8.1875 7.5625 8.1875 7.5625 8 10 C7 11 7 11 3.5 11.3125 C-6.54127463 11.19967669 -18.56389061 8.50929592 -27 3 C-28.19140625 0.875 -28.19140625 0.875 -29 -1 C-20.51992194 -5.90437694 -8.82312103 -2.56768672 0 0 Z " fill="#000000" transform="translate(192,23)"/>
<path d="M0 0 C-0.54723683 3.37462715 -1.0549 5.08235 -3 8 C-1.35 9.32 0.3 10.64 2 12 C1.67 13.65 1.34 15.3 1 17 C-1.9719385 15.87548273 -4.33440687 14.77706209 -7 13 C-9.83312382 13.29822356 -12.05831523 14.02441103 -14.6875 15.125 C-15.450625 15.41375 -16.21375 15.7025 -17 16 C-17.66 15.67 -18.32 15.34 -19 15 C-18.44271087 11.65626525 -17.64826111 8.96687001 -16 6 C-16.99 5.34 -17.98 4.68 -19 4 C-19 3.01 -19 2.02 -19 1 C-17.84371094 1.01740234 -17.84371094 1.01740234 -16.6640625 1.03515625 C-15.15972656 1.04869141 -15.15972656 1.04869141 -13.625 1.0625 C-12.12839844 1.07990234 -12.12839844 1.07990234 -10.6015625 1.09765625 C-6.91272189 0.95918626 -3.88176219 -0.08438613 0 0 Z " fill="#000000" transform="translate(289,74)"/>
<path d="M0 0 C1.40884781 0.01004931 2.81770255 0.01917171 4.2265625 0.02734375 C7.6512205 0.05080031 11.07551939 0.08362616 14.5 0.125 C14.995 1.61 14.995 1.61 15.5 3.125 C5.16708295 5.66431037 -4.32698372 7.19017288 -14.9375 7.25 C-15.6488208 7.25475342 -16.3601416 7.25950684 -17.09301758 7.2644043 C-22.25474543 7.24762728 -22.25474543 7.24762728 -24.5 6.125 C-24.17 4.805 -23.84 3.485 -23.5 2.125 C-15.76269471 -0.40757158 -8.04403612 -0.10012539 0 0 Z " fill="#000000" transform="translate(167.5,280.875)"/>
<path d="M0 0 C1.30927835 5.2371134 1.30927835 5.2371134 0.0625 8.3125 C-3.04068654 10.8514708 -6.11868091 11.18099415 -10 11 C-14.54854121 10.03738466 -19.17583033 8.94070186 -22 5 C-21.6875 2.8125 -21.6875 2.8125 -21 1 C-20.02417969 1.09539062 -19.04835938 1.19078125 -18.04296875 1.2890625 C-16.13451172 1.45535156 -16.13451172 1.45535156 -14.1875 1.625 C-12.92292969 1.74101562 -11.65835937 1.85703125 -10.35546875 1.9765625 C-6.04277348 2.0066861 -4.44802563 0 0 0 Z " fill="#000000" transform="translate(282,254)"/>
<path d="M0 0 C2.84100049 1.96684649 3.78838939 3.15355757 4.625 6.5 C4 9 4 9 1.375 11.375 C-2.48244022 13.23228603 -3.98428484 13.33857172 -8 12 C-9.9375 10.875 -9.9375 10.875 -11 9 C-10.875 5.4375 -10.875 5.4375 -10 2 C-6.2794164 -0.48038907 -4.40203429 -0.46337203 0 0 Z " fill="#000000" transform="translate(124,84)"/>
<path d="M0 0 C0.66 0.66 1.32 1.32 2 2 C1.85642479 5.87653055 1.49091155 8.29869779 -0.75 11.5 C-3 13 -3 13 -5.625 12.875 C-8 12 -8 12 -10 10 C-10.54587156 3.99541284 -10.54587156 3.99541284 -8.9375 1.0625 C-5.92115289 -0.59162584 -3.36333392 -0.30575763 0 0 Z " fill="#000000" transform="translate(105,84)"/>
<path d="M0 0 C3.11913809 1.14114808 4.57051484 2.28151978 6.5625 4.9375 C6.8125 7.6875 6.8125 7.6875 6.5625 9.9375 C3.44828592 11.7829602 1.17928684 12.40119062 -2.4375 11.9375 C-4.25 10.8125 -4.25 10.8125 -5.4375 8.9375 C-5.83861303 5.72859575 -5.95983914 3.78973754 -4.25 1 C-2.4375 -0.0625 -2.4375 -0.0625 0 0 Z " fill="#000000" transform="translate(276.4375,237.0625)"/>
<path d="M0 0 C1.875 0.8125 1.875 0.8125 3.875 2.8125 C4.2383156 5.64636167 4.2318671 7.21772151 2.75 9.6875 C-0.04651052 11.36540631 -2.06190532 10.56125648 -5.125 9.8125 C-5.455 7.5025 -5.785 5.1925 -6.125 2.8125 C-2.70744111 -0.23889186 -2.70744111 -0.23889186 0 0 Z " fill="#000000" transform="translate(140.125,83.1875)"/>
<path d="M0 0 C3.0625 0.1875 3.0625 0.1875 5.0625 2.1875 C4.50694444 6.74305556 4.50694444 6.74305556 3.0625 8.1875 C0.0625 8.3125 0.0625 8.3125 -2.9375 8.1875 C-3.9375 7.1875 -3.9375 7.1875 -4.0625 4.1875 C-3.89838889 0.24883333 -3.89838889 0.24883333 0 0 Z " fill="#000000" transform="translate(257.9375,239.8125)"/>
</svg>
