<?xml version="1.0" encoding="UTF-8"?>
<svg version="1.1" xmlns="http://www.w3.org/2000/svg" width="400" height="306">
<path d="M0 0 C1.32 0 2.64 0 4 0 C4.35191406 0.97582031 4.70382813 1.95164062 5.06640625 2.95703125 C5.56378171 4.24269989 6.06255404 5.52782874 6.5625 6.8125 C6.79001953 7.45509766 7.01753906 8.09769531 7.25195312 8.75976562 C8.32058634 11.43828784 9.29159511 13.55401055 11.77685547 15.11865234 C13.90850997 16.06860589 13.90850997 16.06860589 17 17 C16.566875 18.5778125 16.566875 18.5778125 16.125 20.1875 C16.08375 21.445625 16.0425 22.70375 16 24 C18.84151217 26.67348492 18.84151217 26.67348492 22 29 C22.08507812 29.76828125 22.17015625 30.5365625 22.2578125 31.328125 C23.39963448 35.43868413 26.57636121 36.93838692 30 39.125 C30.71478516 39.59728027 31.42957031 40.06956055 32.16601562 40.55615234 C33.67652567 41.55075802 35.1916289 42.53841841 36.7109375 43.51953125 C38.91297983 44.94371904 41.09863462 46.3900154 43.28125 47.84375 C56.99714477 56.92420237 71.21081786 64.8133818 86 72 C85.34 71.01 84.68 70.02 84 69 C84.33 68.34 84.66 67.68 85 67 C84.34 67 83.68 67 83 67 C81.38050989 64.42786866 80.95591249 63.32330841 81.375 60.25 C81.58125 59.5075 81.7875 58.765 82 58 C81.34 58 80.68 58 80 58 C80.165 56.906875 80.33 55.81375 80.5 54.6875 C80.95774482 51.31163199 81.03779977 48.44414731 80.75 45.0625 C81 42 81 42 82.5 39.8125 C85.32574905 37.76383194 87.98448711 36.75442893 91.29296875 35.7109375 C93.2062056 35.13237451 93.2062056 35.13237451 94 33 C96.32375692 32.60539977 98.6593935 32.27769908 101 32 C102.33917261 31.69096017 103.67653254 31.37057089 105 31 C105 31.66 105 32.32 105 33 C105.7115625 32.67515625 106.423125 32.3503125 107.15625 32.015625 C110.13965709 30.95012247 112.34679951 30.73228539 115.5 30.75 C116.4178125 30.74484375 117.335625 30.7396875 118.28125 30.734375 C121.21608088 31.02111135 123.37285944 31.6701554 126 33 C126.8125 35.125 126.8125 35.125 127 37 C127.99 37 128.98 37 130 37 C130.33 37.99 130.66 38.98 131 40 C131.66 40.33 132.32 40.66 133 41 C132.60543652 47.00008597 131.50753179 51.54884393 129 57 C129 57.99 129 58.98 129 60 C129.33 60.33 129.66 60.66 130 61 C129.59016003 67.42082613 127.94529611 75.19227611 123.16015625 79.75390625 C120.73318941 81.15391063 119.02965823 81.48311337 116.25 81.6875 C115.45078125 81.75324219 114.6515625 81.81898437 113.828125 81.88671875 C113.22484375 81.92410156 112.6215625 81.96148437 112 82 C112 82.99 112 83.98 112 85 C114.85994128 86.60787572 117.02917466 87.27503249 120.29931641 87.42651367 C121.14184967 87.46963181 121.98438293 87.51274994 122.85244751 87.55717468 C124.21325943 87.61201775 124.21325943 87.61201775 125.6015625 87.66796875 C126.55203461 87.71190262 127.50250671 87.75583649 128.48178101 87.80110168 C130.50067854 87.89197342 132.51978717 87.97825362 134.5390625 88.06030273 C137.56587005 88.18506276 140.59133658 88.32866881 143.6171875 88.47460938 C152.81852287 88.89137385 162.00346223 89.15547983 171.2109375 88.80078125 C171.94583405 88.78363571 172.68073059 88.76649017 173.43789673 88.74882507 C176.91610843 88.56121344 178.66959723 88.29164024 181.3203125 85.9519043 C181.87460937 85.30777588 182.42890625 84.66364746 183 84 C185.6640625 83.96875 185.6640625 83.96875 188.625 84.5 C194.22950372 85.1979968 197.70071809 84.44939869 202.74609375 82.0078125 C205.18227466 80.91849764 207.35603359 80.34428945 210 80 C210.66 80.33 211.32 80.66 212 81 C212.33 81.99 212.66 82.98 213 84 C213.73605469 83.71125 214.47210938 83.4225 215.23046875 83.125 C216.20628906 82.75375 217.18210937 82.3825 218.1875 82 C219.15042969 81.62875 220.11335938 81.2575 221.10546875 80.875 C223.92182358 80.02363228 226.08164439 79.82927353 229 80 C229.79953138 83.28696233 230.09658936 84.71023192 229 88 C229.99 88.66 230.98 89.32 232 90 C231.67 91.98 231.34 93.96 231 96 C232.32 96.33 233.64 96.66 235 97 C234.74220026 100.78106289 234.47578037 102.52421963 231.75 105.25 C227.16754208 108.16610959 223.46904088 109.24710643 218.04296875 109.4140625 C216.93115234 109.45273438 215.81933594 109.49140625 214.67382812 109.53125 C213.52333984 109.5621875 212.37285156 109.593125 211.1875 109.625 C210.01767578 109.66367188 208.84785156 109.70234375 207.64257812 109.7421875 C204.76187436 109.8362513 201.88117346 109.92189877 199 110 C198.80470703 110.93392578 198.80470703 110.93392578 198.60546875 111.88671875 C198 114 198 114 196.3125 115.8125 C193.15824006 117.4322551 191.35552131 116.9482995 188 116 C187.34 115.34 186.68 114.68 186 114 C186 112.68 186 111.36 186 110 C184.84290527 109.9498877 183.68581055 109.89977539 182.49365234 109.84814453 C143.76074196 108.15588454 143.76074196 108.15588454 130.8125 107 C129.9860498 106.9292627 129.15959961 106.85852539 128.30810547 106.78564453 C123.66107076 106.3325413 119.45143841 105.41502678 115 104 C115.03480469 104.66386719 115.06960938 105.32773438 115.10546875 106.01171875 C115.38998014 115.29220923 115.38998014 115.29220923 112 119 C106.7021962 123.71414745 100.24522673 125.22721075 93.57617188 127.0480957 C87.61004474 128.71222833 82.3174387 131.00881068 76.734375 133.703125 C70.81928755 136.50856648 66.58525693 137.34392998 60 136 C59.731875 136.680625 59.46375 137.36125 59.1875 138.0625 C58 141 58 141 56.49609375 143.85546875 C54.13872285 149.37810195 54.19747288 155.33003978 53.875 161.25 C53.79572266 162.519646 53.71644531 163.78929199 53.63476562 165.09741211 C53.04190509 174.99536577 52.64496954 184.9018997 52.42919922 194.81542969 C52.23217813 202.02302394 51.35899696 208.91978386 50 216 C50.61875 216.28875 51.2375 216.5775 51.875 216.875 C54 218 54 218 56 220 C58.60280568 219.67958603 58.60280568 219.67958603 61 219 C60.5206753 223.31392226 59.2542015 225.16569547 56 228 C56.5775 227.855625 57.155 227.71125 57.75 227.5625 C59.83333333 227.04166667 61.91666667 226.52083333 64 226 C64 227.98 64 229.96 64 232 C65.16917969 232.03738281 66.33835938 232.07476562 67.54296875 232.11328125 C69.09117675 232.1789628 70.63935242 232.24540939 72.1875 232.3125 C73.34088867 232.34633789 73.34088867 232.34633789 74.51757812 232.38085938 C79.09539096 232.59697929 82.29530863 233.02763134 86 236 C86.68753301 237.65816784 87.35561283 239.32459336 88 241 C88.61875 241.28875 89.2375 241.5775 89.875 241.875 C93.20909551 243.64010939 94.68917158 246.58638431 96 250 C96.25 253.9375 96.25 253.9375 96 257 C89.12542373 258.98305085 89.12542373 258.98305085 86.6875 259.3125 C84.73166534 259.87968149 84.73166534 259.87968149 84 262.3125 C83.67 263.199375 83.34 264.08625 83 265 C81.25069498 267.51899924 79.92356386 268.74140212 76.94921875 269.57421875 C71.8122464 270.37714048 68.36932952 270.12094966 64 267 C61.33299973 263.62179966 60.63356658 261.27505653 61 257 C60.01 257.165 59.02 257.33 58 257.5 C53.97267058 258.08474517 50.06525377 258.07132024 46 258 C45.9175 259.0725 45.835 260.145 45.75 261.25 C44.93855886 265.30720568 44.17993592 266.49459594 41 269 C37.79139471 270.60430264 34.4809543 270.48105318 31 270 C27.90748447 268.18482784 26.41311286 266.71355858 24.625 263.625 C23.86389039 260.42833964 24.32042151 258.1940189 25 255 C25 253.68 25 252.36 25 251 C24.67 250.67 24.34 250.34 24 250 C24.02004131 247.87505422 24.10916897 245.75070148 24.2265625 243.62890625 C24.2884375 242.33275391 24.3503125 241.03660156 24.4140625 239.70117188 C24.51736341 237.62900488 24.62529144 235.55742073 24.74414062 233.48608398 C24.85616046 231.49274805 24.94791261 229.49830548 25.0390625 227.50390625 C25.13501709 225.70675171 25.13501709 225.70675171 25.23291016 223.87329102 C25.1560498 222.92510498 25.07918945 221.97691895 25 221 C24.01 220.34 23.02 219.68 22 219 C22 218.34 22 217.68 22 217 C23.65 216.67 25.3 216.34 27 216 C26.98525131 215.41721283 26.97050262 214.83442566 26.95530701 214.23397827 C26.80142439 208.10082178 26.6570218 201.96749128 26.51782227 195.83398438 C26.46485483 193.5530036 26.40956879 191.27207533 26.35180664 188.99121094 C26.2686143 185.68956004 26.192517 182.38786313 26.12109375 179.0859375 C26.09727631 178.02139343 26.07345886 176.95684937 26.04891968 175.86004639 C25.931126 168.96058679 26.2103374 162.30744121 27.15649414 155.46337891 C27.10485107 154.65046387 27.05320801 153.83754883 27 153 C25.11080496 151.27463622 25.11080496 151.27463622 23 150 C22.390625 147.43359375 22.390625 147.43359375 22.25 144.4375 C22.19457031 143.37917969 22.13914063 142.32085937 22.08203125 141.23046875 C21.96997419 136.81755501 21.91211657 132.41370121 22 128 C21.00419922 127.94392578 21.00419922 127.94392578 19.98828125 127.88671875 C10.84738698 127.20615582 10.84738698 127.20615582 7 124 C7 123.34 7 122.68 7 122 C5.86304688 121.6596875 4.72609375 121.319375 3.5546875 120.96875 C-6.82414236 117.75735811 -15.86754425 113.97281637 -25 108 C-25.6688623 107.56945312 -26.33772461 107.13890625 -27.02685547 106.6953125 C-37.94932158 99.58931111 -47.11826874 91.51513523 -56 82 C-57.15242188 82.50273437 -57.15242188 82.50273437 -58.328125 83.015625 C-61.40974701 84.15095943 -62.91521312 84.02826229 -66 83 C-66.33 82.34 -66.66 81.68 -67 81 C-67.99 80.67 -68.98 80.34 -70 80 C-70.33 78.35 -70.66 76.7 -71 75 C-71.2475 75.639375 -71.495 76.27875 -71.75 76.9375 C-73 79 -73 79 -75.125 79.75 C-75.74375 79.8325 -76.3625 79.915 -77 80 C-77.66 78.35 -78.32 76.7 -79 75 C-80.0621875 75.28875 -81.124375 75.5775 -82.21875 75.875 C-83.64569849 76.25051276 -85.07278962 76.6254838 -86.5 77 C-87.54414062 77.28617188 -87.54414062 77.28617188 -88.609375 77.578125 C-94.75346944 79.17103837 -100.52020955 80.35686648 -106.3125 77.1875 C-109 75 -109 75 -110.4375 73.1875 C-110.953125 72.795625 -111.46875 72.40375 -112 72 C-113.11375 72.165 -114.2275 72.33 -115.375 72.5 C-119 73 -119 73 -121.8125 72 C-124.83608027 69.23558375 -125.43598124 67.01863369 -126 63 C-125 60.625 -125 60.625 -123 59 C-119.8125 58.25 -119.8125 58.25 -117 58 C-117.32097656 57.44054687 -117.64195313 56.88109375 -117.97265625 56.3046875 C-119.75664508 52.30258328 -119.68173822 48.28617597 -119 44 C-117.31712073 40.87822767 -115.2172593 38.60862965 -112 37 C-105.01321586 36.42731278 -105.01321586 36.42731278 -101.125 38.625 C-98.71829861 41.31484273 -97.86915371 43.52338517 -97 47 C-96.24074219 46.65066406 -95.48148438 46.30132812 -94.69921875 45.94140625 C-93.20841797 45.25884766 -93.20841797 45.25884766 -91.6875 44.5625 C-90.70136719 44.11003906 -89.71523437 43.65757813 -88.69921875 43.19140625 C-86 42 -86 42 -83 41 C-83.061875 39.948125 -83.12375 38.89625 -83.1875 37.8125 C-82.98786913 33.75333902 -82.45779385 32.16002067 -80 29 C-76.67216832 26.08814728 -74.07903794 25.07992874 -69.625 24.75 C-64.89483834 25.07621805 -62.55704241 26.44295759 -59.25 29.75 C-58 32 -58 32 -57.6875 35.1875 C-56.89847207 39.5630185 -55.36657674 41.64487149 -52.8203125 45.1875 C-50.06444165 49.44549789 -47.95205493 54.00245686 -45.80444336 58.59155273 C-44.1546033 62.03496735 -43.24263601 63.83824266 -40 66 C-40 67.32 -40 68.64 -40 70 C-39.24976562 70.25910156 -38.49953125 70.51820312 -37.7265625 70.78515625 C-34.901203 72.04401987 -33.51612362 73.24626498 -31.375 75.4375 C-20.83732249 85.09703772 -5.50218354 93.29442758 8 98 C10.06139528 97.80888914 10.06139528 97.80888914 12 97 C17.6253096 95.77747831 23.1499747 95.88707634 28.875 95.9375 C29.84953125 95.94201172 30.8240625 95.94652344 31.828125 95.95117188 C34.21881434 95.96289094 36.6093744 95.97929781 39 96 C39.24153809 95.35869141 39.48307617 94.71738281 39.73193359 94.05664062 C41 92 41 92 42.93603516 91.33398438 C43.71253418 91.25470703 44.4890332 91.17542969 45.2890625 91.09375 C46.57876953 90.93712891 46.57876953 90.93712891 47.89453125 90.77734375 C48.79558594 90.68582031 49.69664062 90.59429687 50.625 90.5 C57.61708952 89.77101563 62.90472581 88.62647892 69 85 C69.33 84.34 69.66 83.68 70 83 C69.37770508 82.74943848 68.75541016 82.49887695 68.11425781 82.24072266 C46.63876901 73.55201572 24.70116792 64.28580918 5.77734375 50.68359375 C3.23302091 48.82991334 3.23302091 48.82991334 0.83984375 48.93359375 C-0.10181641 49.18302734 -0.10181641 49.18302734 -1.0625 49.4375 C-5 50 -5 50 -7.875 48.875 C-11.23065793 45.91412535 -11.79700093 42.91349582 -12.75 38.625 C-14.1051373 34.69510182 -15.72848329 32.81553905 -18.47265625 29.81640625 C-22.57728958 24.93493694 -24.76372285 19.37948303 -25 13 C-24.0625 9.5625 -24.0625 9.5625 -23 7 C-19.26512223 7.4979837 -17.18762365 7.87491756 -14 10 C-13.9175 8.88625 -13.835 7.7725 -13.75 6.625 C-13 3 -13 3 -10.9375 1.5625 C-9.9784375 1.2840625 -9.9784375 1.2840625 -9 1 C-7.35 2.98 -5.7 4.96 -4 7 C-3.525625 6.030625 -3.05125 5.06125 -2.5625 4.0625 C-1 1 -1 1 0 0 Z M2 13 C1.34 14.98 0.68 16.96 0 19 C-3.26954202 18.43628586 -4.82575883 17.50037734 -7 15 C-7.33 17.31 -7.66 19.62 -8 22 C-11 22 -11 22 -13.5 19.625 C-14.325 18.75875 -15.15 17.8925 -16 17 C-16.99 16.34 -17.98 15.68 -19 15 C-18.39625823 19.2497148 -16.92542105 22.40290066 -14.8125 26.125 C-14.24144531 27.15882812 -13.67039062 28.19265625 -13.08203125 29.2578125 C-10.62264455 32.49700474 -8.87862092 33.78212281 -5 35 C-2.14131183 34.22851641 -2.14131183 34.22851641 0.375 32.4375 C1.24898437 31.89996094 2.12296875 31.36242187 3.0234375 30.80859375 C3.67570312 30.21175781 4.32796875 29.61492188 5 29 C5 27.68 5 26.36 5 25 C6.32 24.34 7.64 23.68 9 23 C8.38125 22.278125 7.7625 21.55625 7.125 20.8125 C5.16333647 18.21618062 4.04684 16.05328334 3 13 C2.67 13 2.34 13 2 13 Z M-78 34 C-78.58350505 36.54290625 -78.58350505 36.54290625 -78 39 C-74.77208445 41.1519437 -73.71599191 41.20086443 -70 41 C-70.7425 39.8553125 -70.7425 39.8553125 -71.5 38.6875 C-73 36 -73 36 -73 33 C-71.0625 33.6875 -71.0625 33.6875 -69 35 C-68.25 37.625 -68.25 37.625 -68 40 C-66.68 40 -65.36 40 -64 40 C-63.34 38.02 -62.68 36.04 -62 34 C-63.64857544 32.00906863 -64.53969062 31.08646695 -67.12109375 30.6015625 C-73.27441868 30.49425061 -73.27441868 30.49425061 -78 34 Z M12.3125 41 C10.6728125 41.99 10.6728125 41.99 9 43 C11.06123157 45.19151883 13.10152462 46.81910385 15.66796875 48.3828125 C16.38750732 48.82302734 17.1070459 49.26324219 17.84838867 49.71679688 C18.62029541 50.18150391 19.39220215 50.64621094 20.1875 51.125 C20.99485596 51.61291016 21.80221191 52.10082031 22.6340332 52.60351562 C25.08455283 54.07723791 27.54078013 55.54084939 30 57 C30.67289063 57.40057617 31.34578125 57.80115234 32.0390625 58.21386719 C40.40665135 63.15952541 49.00328731 67.57577794 57.75 71.8125 C58.68416748 72.26882812 59.61833496 72.72515625 60.58081055 73.1953125 C71.84321428 78.79810023 71.84321428 78.79810023 84 81 C84 79.68 84 78.36 84 77 C83.38181396 76.71390869 82.76362793 76.42781738 82.12670898 76.13305664 C62.70348776 67.10373737 45.10711313 56.71326353 27.49609375 44.58984375 C26.42488281 43.85894531 25.35367188 43.12804688 24.25 42.375 C23.30640625 41.72273438 22.3628125 41.07046875 21.390625 40.3984375 C17.69378413 38.2359064 15.76358228 38.91632768 12.3125 41 Z M-113.5 46.25 C-115.24174727 48.82126964 -115.24174727 48.82126964 -114.75 51.3125 C-114.5025 51.869375 -114.255 52.42625 -114 53 C-112.35 53.33 -110.7 53.66 -109 54 C-109.33 52.35 -109.66 50.7 -110 49 C-109.01 49 -108.02 49 -107 49 C-106.67 50.65 -106.34 52.3 -106 54 C-103.83358335 52.33454661 -103.83358335 52.33454661 -102 50 C-102.19198522 46.6678502 -102.19198522 46.6678502 -104 44 C-109.2551848 43.40187848 -109.2551848 43.40187848 -113.5 46.25 Z M-62.18432617 46.36962891 C-65.10960922 48.06346747 -67.83070608 49.0705873 -71.05078125 50.0859375 C-72.80116699 50.64293335 -72.80116699 50.64293335 -74.58691406 51.21118164 C-75.81635742 51.5952417 -77.04580078 51.97930176 -78.3125 52.375 C-79.56385742 52.77130615 -80.81521484 53.1676123 -82.10449219 53.57592773 C-85.73431541 54.7238065 -89.36671265 55.86314102 -93 57 C-94.80083898 57.56622268 -96.60162816 58.13260378 -98.40234375 58.69921875 C-101.93237383 59.80767316 -105.46494832 60.90764707 -109 62 C-107.99568826 67.4380645 -107.99568826 67.4380645 -105 72 C-98.55109755 72.52229581 -92.85181885 71.28306518 -86.625 69.6875 C-85.27341797 69.36749023 -85.27341797 69.36749023 -83.89453125 69.04101562 C-83.03472656 68.82509766 -82.17492187 68.60917969 -81.2890625 68.38671875 C-80.51256348 68.19295654 -79.73606445 67.99919434 -78.93603516 67.79956055 C-76.63822707 67.06109143 -76.63822707 67.06109143 -75 64 C-73.0625 64.3125 -73.0625 64.3125 -71 65 C-70.505 66.485 -70.505 66.485 -70 68 C-69.34 68 -68.68 68 -68 68 C-67.34 67.01 -66.68 66.02 -66 65 C-65.01 65.33 -64.02 65.66 -63 66 C-63.29296875 68.01822917 -63.5859375 70.03645833 -63.87890625 72.0546875 C-64.1684297 74.08140667 -64.1684297 74.08140667 -63 76 C-58.84848662 74.55797524 -55.70021555 72.4989562 -52.1875 69.875 C-51.21167969 69.15054688 -50.23585937 68.42609375 -49.23046875 67.6796875 C-48.49441406 67.12539062 -47.75835937 66.57109375 -47 66 C-50.48848321 58.68902987 -54.01454885 51.4307448 -59 45 C-60.28849724 44.91146123 -60.28849724 44.91146123 -62.18432617 46.36962891 Z M116 51 C116.33 52.32 116.66 53.64 117 55 C115.35 55.33 113.7 55.66 112 56 C111.67 55.34 111.34 54.68 111 54 C107.39007621 54.65585189 107.39007621 54.65585189 104 56 C103.835 56.825 103.67 57.65 103.5 58.5 C103.335 59.325 103.17 60.15 103 61 C102.01 61.495 102.01 61.495 101 62 C101 62.66 101 63.32 101 64 C99.35 64 97.7 64 96 64 C96 64.66 96 65.32 96 66 C97.32 66 98.64 66 100 66 C100 66.66 100 67.32 100 68 C100.66 68.33 101.32 68.66 102 69 C101.22095672 79.55808656 101.22095672 79.55808656 99 84 C97.68 83.67 96.36 83.34 95 83 C95 86.63 95 90.26 95 94 C99.38671475 96.23412021 99.38671475 96.23412021 104 96 C106.5368109 94.8017483 106.5368109 94.8017483 108 92 C108.72138067 86.21114281 108.42219202 81.33851121 106 76 C106.77085937 76.02320312 107.54171875 76.04640625 108.3359375 76.0703125 C109.84027344 76.09738281 109.84027344 76.09738281 111.375 76.125 C112.37273437 76.14820312 113.37046875 76.17140625 114.3984375 76.1953125 C117.16262173 76.27216848 117.16262173 76.27216848 119 74 C118.67 73.01 118.34 72.02 118 71 C119.32 71 120.64 71 122 71 C122.12375 70.21625 122.2475 69.4325 122.375 68.625 C123 66 123 66 125 64 C124.01 63.67 123.02 63.34 122 63 C121.85304688 61.95199219 121.85304688 61.95199219 121.703125 60.8828125 C121.55359375 59.97273438 121.4040625 59.06265625 121.25 58.125 C121.11078125 57.22007813 120.9715625 56.31515625 120.828125 55.3828125 C120.22016157 52.83785757 120.22016157 52.83785757 117.921875 51.6796875 C117.28765625 51.45539063 116.6534375 51.23109375 116 51 Z M-121 64 C-120.67 64.99 -120.34 65.98 -120 67 C-118.02 66.34 -116.04 65.68 -114 65 C-114 64.67 -114 64.34 -114 64 C-116.31 64 -118.62 64 -121 64 Z M-51 77 C-49.42026316 80.8288537 -46.97939543 83.28773759 -44.0625 86.1875 C-43.18722656 87.06792969 -42.31195313 87.94835937 -41.41015625 88.85546875 C-39.11635158 91.1803169 -39.11635158 91.1803169 -36 92 C-35.38125 91.071875 -34.7625 90.14375 -34.125 89.1875 C-32.75 87.125 -31.375 85.0625 -30 83 C-30.77085938 82.44570312 -31.54171875 81.89140625 -32.3359375 81.3203125 C-33.84027344 80.23363281 -33.84027344 80.23363281 -35.375 79.125 C-36.87160156 78.04605469 -36.87160156 78.04605469 -38.3984375 76.9453125 C-41 75 -41 75 -43 73 C-46.90838866 73 -48.11594107 74.50567876 -51 77 Z M93 73 C93.99 74.65 94.98 76.3 96 78 C96.66 76.68 97.32 75.36 98 74 C96.35 73.67 94.7 73.34 93 73 Z M90 78 C89.731875 79.093125 89.46375 80.18625 89.1875 81.3125 C88.34765625 83.2734375 88.34765625 83.2734375 87 85 C84.41683303 86.0037975 81.85629936 86.49384614 79.14453125 87.0625 C75.50161867 88.14858574 72.95474915 89.80875338 69.8125 91.9375 C62.63071915 96.63594217 55.35069166 98.37059675 47 100 C48.68785687 105.96242931 51.56247313 111.23357028 54.4375 116.6875 C54.92798828 117.63689453 55.41847656 118.58628906 55.92382812 119.56445312 C56.40142578 120.47517578 56.87902344 121.38589844 57.37109375 122.32421875 C57.80349365 123.15010498 58.23589355 123.97599121 58.68139648 124.8269043 C59.96129647 126.9362155 61.06732136 128.46939528 63 130 C69.54100175 129.98307632 74.9044758 126.92460826 80.6875 124.125 C87.68415803 120.82205023 94.13463066 118.15002731 101.70703125 116.5546875 C105.32802938 115.67873906 107.31499445 114.61243783 110 112 C110.8945427 108.54962102 111 105.54859025 111 102 C111 98.58978699 111.46186339 95.36335381 112 92 C110.02236981 94.88335741 110.02236981 94.88335741 108.5625 97.5625 C107 100 107 100 104 102 C96.01117318 102.58100559 96.01117318 102.58100559 93 100 C89.11967242 92.50695364 89.87843394 85.97416207 92 78 C91.34 78 90.68 78 90 78 Z M200.0703125 89.02734375 C198.05249921 89.97533528 196.17484427 90.53674842 194 91 C194.20496094 91.60328125 194.40992188 92.2065625 194.62109375 92.828125 C194.89050781 93.62734375 195.15992188 94.4265625 195.4375 95.25 C195.70433594 96.03890625 195.97117187 96.8278125 196.24609375 97.640625 C196.91954708 99.74821988 197.49150595 101.84753973 198 104 C208.38718351 105.10672174 216.88815369 105.06472054 227 102 C227 101.67 227 101.34 227 101 C223.7 101.33 220.4 101.66 217 102 C217.66 100.02 218.32 98.04 219 96 C217.35 96 215.7 96 214 96 C214.66 93.69 215.32 91.38 216 89 C213.36 89 210.72 89 208 89 C208 88.01 208 87.02 208 86 C204.94526076 86 202.73071001 87.61622035 200.0703125 89.02734375 Z M-22 89 C-23.60907108 91.37612865 -23.60907108 91.37612865 -25 94 C-24.67 94.66 -24.34 95.32 -24 96 C-22.35 94.02 -20.7 92.04 -19 90 C-19.99 89.67 -20.98 89.34 -22 89 Z M116 93 C115.67 95.31 115.34 97.62 115 100 C116.43835205 99.96519531 116.43835205 99.96519531 117.90576172 99.9296875 C130.40538209 99.72745659 142.69332424 100.79445513 155.125 102 C158.14834489 102.28802966 161.17187619 102.57375048 164.19577026 102.85595703 C166.05820548 103.03027178 167.92031572 103.20810913 169.78201294 103.39013672 C174.54809221 103.84154589 179.21258912 104.0909259 184 104 C183.01 101.03 182.02 98.06 181 95 C180.0613208 95.01047363 179.1226416 95.02094727 178.15551758 95.03173828 C157.32583524 95.24313594 136.76190813 94.82309142 116 93 Z M-15 94 C-16.00578589 95.28716647 -17.00446798 96.57988658 -18 97.875 C-18.556875 98.59429687 -19.11375 99.31359375 -19.6875 100.0546875 C-21.18643377 101.8852085 -21.18643377 101.8852085 -21 104 C-18.00429109 105.61227389 -15.00269783 107.21328538 -12 108.8125 C-11.16082031 109.26431641 -10.32164062 109.71613281 -9.45703125 110.18164062 C-0.6741614 115.10737403 -0.6741614 115.10737403 9 117 C9.33 112.38 9.66 107.76 10 103 C6.77292405 101.68215224 3.54353823 100.37056738 0.3125 99.0625 C-0.59951172 98.68931641 -1.51152344 98.31613281 -2.45117188 97.93164062 C-3.33740234 97.57392578 -4.22363281 97.21621094 -5.13671875 96.84765625 C-5.94842529 96.51773682 -6.76013184 96.18781738 -7.59643555 95.84790039 C-10.05023824 94.98227756 -12.43990426 94.44826579 -15 94 Z M-26 96 C-26.99 97.485 -26.99 97.485 -28 99 C-27.01 98.67 -26.02 98.34 -25 98 C-25.33 97.34 -25.66 96.68 -26 96 Z M33 151 C31.67204552 157.94879325 31.88500507 164.94952769 31.9375 172 C31.94201172 173.15628906 31.94652344 174.31257813 31.95117188 175.50390625 C31.96287458 178.33596009 31.98080714 181.16798702 32 184 C38.93 184.495 38.93 184.495 46 185 C47.26628973 179.93484107 47.62268943 174.94302255 48.0625 169.75 C48.15337891 168.73808594 48.24425781 167.72617188 48.33789062 166.68359375 C48.81964895 161.09809493 49.10058192 155.6057659 49 150 C46.70839681 149.97307516 44.41670454 149.95363876 42.125 149.9375 C40.21074219 149.92009766 40.21074219 149.92009766 38.2578125 149.90234375 C35.11335348 149.76823431 35.11335348 149.76823431 33 151 Z M37.875 188.5 C36.77929688 188.5928125 35.68359375 188.685625 34.5546875 188.78125 C33.71164063 188.8534375 32.86859375 188.925625 32 189 C32 189.33 32 189.66 32 190 C36.62 190 41.24 190 46 190 C46 189.34 46 188.68 46 188 C43.27470111 188 40.59032159 188.2689088 37.875 188.5 Z M32 202 C31.67 205.96 31.34 209.92 31 214 C35.26159382 216.13079691 41.40763702 215.04502317 46 215 C46 210.38 46 205.76 46 201 C41.30609884 201 36.67226719 201.56025721 32 202 Z M30 220 C30.0388735 224.72516294 30.0388735 224.72516294 30.09008789 229.45019531 C30.11543143 235.73866303 29.52962152 241.64454176 29 248 C46.82 248 64.64 248 83 248 C83 246.02 83 244.04 83 242 C79.46274294 239.64182863 77.57800204 239.65268638 73.375 239.4375 C69.18337679 239.21279443 65.13553536 238.89322276 61 238.1875 C57.42493642 237.73479176 56.98914843 238.00611634 53.5625 239.9375 C52.716875 240.618125 51.87125 241.29875 51 242 C50.34 242 49.68 242 49 242 C49.4979837 238.26512223 49.87491756 236.18762365 52 233 C47.82412255 231.60804085 45.86525224 233.17676781 42 235 C42.94586309 231.21654763 43.50407682 229.38965393 46.625 226.9375 C47.40875 226.298125 48.1925 225.65875 49 225 C49 223.35 49 221.7 49 220 C42.73 220 36.46 220 30 220 Z M87 247 C86.67 248.98 86.34 250.96 86 253 C87.98 252.67 89.96 252.34 92 252 C90.6446674 249.46326712 90.6446674 249.46326712 89 247 C88.34 247 87.68 247 87 247 Z M66 257 C66.27617533 258.94074861 66.27617533 258.94074861 67 261 C71.05358424 263.70238949 73.18310104 263.22937614 78 263 C78.66 262.67 79.32 262.34 80 262 C80 260.35 80 258.7 80 257 C77.525 256.01 77.525 256.01 75 255 C74.67 256.98 74.34 258.96 74 261 C73.34 261 72.68 261 72 261 C72 258.69 72 256.38 72 254 C69.23776722 254 68.10718546 255.31425163 66 257 Z M29 258 C29.34444881 260.47266765 29.34444881 260.47266765 30 263 C33.01868434 264.50934217 35.67297229 264.17510672 39 264 C39.99 263.34 40.98 262.68 42 262 C41.67 260.35 41.34 258.7 41 257 C39.68 256.67 38.36 256.34 37 256 C37 257.65 37 259.3 37 261 C36.01 261.33 35.02 261.66 34 262 C33.875 257.25 33.875 257.25 35 255 C32.23776722 255 31.10718546 256.31425163 29 258 Z " fill="#000000" transform="translate(145,16)"/>
<path d="M0 0 C1.5456543 2.19311523 1.5456543 2.19311523 2.82421875 5.05859375 C3.53094727 6.59676758 3.53094727 6.59676758 4.25195312 8.16601562 C4.96254883 9.78540039 4.96254883 9.78540039 5.6875 11.4375 C6.64633899 13.56273543 7.60842426 15.68651014 8.57421875 17.80859375 C8.99276123 18.75532959 9.41130371 19.70206543 9.8425293 20.67749023 C10.90445003 23.11609329 10.90445003 23.11609329 13 25 C12.6370951 28.50808074 10.80483804 31.04006562 9 34 C8.34 35.65 7.68 37.3 7 39 C-0.59 39 -8.18 39 -16 39 C-16.33 33.06 -16.66 27.12 -17 21 C-15.68 20.67 -14.36 20.34 -13 20 C-12.67 19.34 -12.34 18.68 -12 18 C-12.75023437 18.01160156 -13.50046875 18.02320313 -14.2734375 18.03515625 C-20.92337417 18.0937829 -27.40004873 17.81769308 -34 17 C-33.85677897 15.45808846 -33.71028211 13.91648108 -33.5625 12.375 C-33.48128906 11.51648438 -33.40007812 10.65796875 -33.31640625 9.7734375 C-32.9802672 6.82703345 -32.49661885 3.92315866 -32 1 C-27.60502407 0.63460921 -23.20895156 0.28464722 -18.8125 -0.0625 C-17.56662109 -0.16626953 -16.32074219 -0.27003906 -15.03710938 -0.37695312 C-13.83505859 -0.47041016 -12.63300781 -0.56386719 -11.39453125 -0.66015625 C-10.28956299 -0.74918213 -9.18459473 -0.83820801 -8.04614258 -0.92993164 C-5.04948612 -0.9988617 -2.816395 -1.03583904 0 0 Z " fill="#F75374" transform="translate(190,122)"/>
<path d="M0 0 C1.84430099 0.02530289 1.84430099 0.02530289 3.7258606 0.05111694 C5.07880023 0.07503997 6.43173595 0.09918536 7.78466797 0.12353516 C9.17836993 0.14533134 10.57207738 0.16677968 11.96578979 0.18789673 C14.89978312 0.23348858 17.83368797 0.28267414 20.76757812 0.33447266 C24.4808696 0.39984538 28.19422794 0.45752604 31.90768623 0.51250267 C34.79585633 0.55598889 37.68395573 0.60325326 40.57204819 0.65159988 C42.59220296 0.68492232 44.61240082 0.71559952 46.63259888 0.7461853 C55.82973375 0.913517 64.97808558 1.39693713 74.15185547 2.03759766 C74.15185547 3.02759766 74.15185547 4.01759766 74.15185547 5.03759766 C71.13865271 6.77230251 68.97799666 7.28964166 65.51318359 7.28564453 C64.59033569 7.28705444 63.66748779 7.28846436 62.7166748 7.28991699 C61.71559692 7.27883911 60.71451904 7.26776123 59.68310547 7.25634766 C58.10172791 7.24698181 58.10172791 7.24698181 56.48840332 7.23742676 C43.52292031 7.09860394 30.59137011 6.31815947 17.65185547 5.53759766 C15.15970477 5.39243329 12.66751728 5.24789903 10.17529297 5.10400391 C4.16703909 4.75576142 -1.8407219 4.39988357 -7.84814453 4.03759766 C-7.84814453 3.04759766 -7.84814453 2.05759766 -7.84814453 1.03759766 C-5.12808769 -0.32243077 -3.04436892 -0.04764647 0 0 Z " fill="#000000" transform="translate(72.84814453125,170.96240234375)"/>
<path d="M0 0 C0.69869202 0.02092209 1.39738403 0.04184418 2.11724854 0.06340027 C4.39347697 0.13321271 6.66935656 0.21090492 8.9453125 0.2890625 C10.49722507 0.33871116 12.04914569 0.38810868 13.60107422 0.43725586 C24.76421953 0.79916485 35.91963394 1.27022725 47.0703125 1.9140625 C47.5653125 3.8940625 47.5653125 3.8940625 48.0703125 5.9140625 C39.34063685 11.73384627 20.91435252 7.253752 10.6953125 6.4140625 C8.88024863 6.26902611 7.06514458 6.12449156 5.25 5.98046875 C0.85628731 5.63077042 -3.53682949 5.27433179 -7.9296875 4.9140625 C-8.2596875 3.5940625 -8.5896875 2.2740625 -8.9296875 0.9140625 C-5.94608526 -0.57773862 -3.32286429 -0.10528299 0 0 Z " fill="#000000" transform="translate(99.9296875,184.0859375)"/>
<path d="M0 0 C8.25 0.33 16.5 0.66 25 1 C25 1.99 25 2.98 25 4 C16.36228787 6.48883231 7.69960093 6.46453586 -1 4 C-0.67 2.68 -0.34 1.36 0 0 Z " fill="#000000" transform="translate(125,198)"/>
<path d="M0 0 C0.66 0 1.32 0 2 0 C2.33 0.66 2.66 1.32 3 2 C3.99 1.34 4.98 0.68 6 0 C7 1 7 1 7.0625 4.5625 C7.041875 5.696875 7.02125 6.83125 7 8 C5.35 8.66 3.7 9.32 2 10 C-1.07692308 5.69230769 -1.07692308 5.69230769 -0.6875 2.1875 C-0.460625 1.465625 -0.23375 0.74375 0 0 Z " fill="#000000" transform="translate(258,73)"/>
</svg>
