<?xml version="1.0" encoding="UTF-8"?>
<svg version="1.1" xmlns="http://www.w3.org/2000/svg" width="238" height="400">
<path d="M0 0 C14.85501674 11.72226568 24.23758189 28.03520378 28.12890625 46.5078125 C28.38156363 49.28704367 28.35202522 51.7188254 28.12890625 54.5078125 C28.96421875 54.61996094 28.96421875 54.61996094 29.81640625 54.734375 C38.2224195 56.18270836 43.5642974 59.95779186 48.50390625 66.8828125 C53.23496419 74.61751214 53.92046403 81.61493514 52.12890625 90.5078125 C50.2136164 96.01664121 46.99657745 100.21040006 43.12890625 104.5078125 C43.39445313 105.00410156 43.66 105.50039062 43.93359375 106.01171875 C49.57370108 116.8596624 51.10533103 127.83644433 47.62890625 139.7578125 C43.55826913 150.47001545 36.00413739 157.94804881 25.65641785 162.62542725 C18.91581796 165.25041856 13.19160562 166.05568005 5.9921875 165.8984375 C5.09898804 165.89440918 4.20578857 165.89038086 3.28552246 165.88623047 C0.0039362 165.86557488 -3.27735325 165.80973341 -6.55859375 165.7578125 C-13.92171875 165.6753125 -21.28484375 165.5928125 -28.87109375 165.5078125 C-28.87109375 191.5778125 -28.87109375 217.6478125 -28.87109375 244.5078125 C-19.63109375 244.5078125 -10.39109375 244.5078125 -0.87109375 244.5078125 C-3.3583217 263.07742256 -6.03175847 281.61792872 -8.7421875 300.15600586 C-9.37899257 304.51321296 -10.01083546 308.871126 -10.64173317 313.22919178 C-11.13138519 316.60518021 -11.62469262 319.98062699 -12.11903 323.35593224 C-12.35407251 324.96535641 -12.58770604 326.57498701 -12.81990433 328.18482399 C-13.14118382 330.41001955 -13.46762646 332.63439723 -13.79541016 334.85864258 C-13.97955475 336.1224324 -14.16369934 337.38622223 -14.35342407 338.68830872 C-14.87109375 341.5078125 -14.87109375 341.5078125 -15.87109375 342.5078125 C-17.83478528 342.6018192 -19.80188574 342.62524631 -21.76782227 342.62133789 C-23.02905411 342.62126236 -24.29028595 342.62118683 -25.58973694 342.62110901 C-26.97649169 342.6160016 -28.36324604 342.61078559 -29.75 342.60546875 C-31.16104584 342.60360451 -32.57209232 342.60218064 -33.98313904 342.60118103 C-37.7034991 342.59735629 -41.42382035 342.5875264 -45.14416504 342.57647705 C-48.93790156 342.56626198 -52.73164433 342.56168321 -56.52539062 342.55664062 C-63.97397606 342.54590408 -71.42252947 342.5288282 -78.87109375 342.5078125 C-81.71272965 324.93568947 -83.80920488 307.27121403 -85.94262695 289.60253906 C-86.46018541 285.31634704 -86.98249921 281.03074964 -87.50616741 276.74530029 C-87.91198495 273.4204222 -88.31548973 270.09526666 -88.71827126 266.77001953 C-88.91016398 265.18790416 -89.10274077 263.6058716 -89.29602623 262.02392578 C-89.56386311 259.82872554 -89.82861392 257.63317468 -90.0925293 255.4375 C-90.24336472 254.19210449 -90.39420013 252.94670898 -90.54960632 251.66357422 C-90.87109375 248.5078125 -90.87109375 248.5078125 -90.87109375 244.5078125 C-81.63109375 244.5078125 -72.39109375 244.5078125 -62.87109375 244.5078125 C-62.87109375 218.4378125 -62.87109375 192.3678125 -62.87109375 165.5078125 C-74.42109375 165.5078125 -85.97109375 165.5078125 -97.87109375 165.5078125 C-115.2565568 160.15843925 -128.76877288 153.6972638 -137.87109375 137.5078125 C-144.53809544 122.53296674 -146.94147244 106.19800684 -141.203125 90.40234375 C-138.65918086 84.87430091 -135.66187173 79.30345246 -131.32958984 74.96362305 C-127.39266904 70.9303522 -126.22587778 68.22927636 -126.19287109 62.59423828 C-126.21043457 61.76134277 -126.22799805 60.92844727 -126.24609375 60.0703125 C-125.93544704 41.49637015 -120.51245331 24.53724291 -107.87109375 10.5078125 C-107.06929687 9.61320312 -106.2675 8.71859375 -105.44140625 7.796875 C-77.28120958 -21.99579684 -32.20720588 -24.54297332 0 0 Z " fill="#FDFDFD" transform="translate(164.87109375,37.4921875)"/>
<path d="M0 0 C14.85501674 11.72226568 24.23758189 28.03520378 28.12890625 46.5078125 C28.38156363 49.28704367 28.35202522 51.7188254 28.12890625 54.5078125 C28.96421875 54.61996094 28.96421875 54.61996094 29.81640625 54.734375 C38.2224195 56.18270836 43.5642974 59.95779186 48.50390625 66.8828125 C53.23496419 74.61751214 53.92046403 81.61493514 52.12890625 90.5078125 C50.2136164 96.01664121 46.99657745 100.21040006 43.12890625 104.5078125 C43.39445313 105.00410156 43.66 105.50039062 43.93359375 106.01171875 C49.57370108 116.8596624 51.10533103 127.83644433 47.62890625 139.7578125 C43.55826913 150.47001545 36.00413739 157.94804881 25.65641785 162.62542725 C18.91581796 165.25041856 13.19160562 166.05568005 5.9921875 165.8984375 C5.09898804 165.89440918 4.20578857 165.89038086 3.28552246 165.88623047 C0.0039362 165.86557488 -3.27735325 165.80973341 -6.55859375 165.7578125 C-13.92171875 165.6753125 -21.28484375 165.5928125 -28.87109375 165.5078125 C-28.87109375 191.5778125 -28.87109375 217.6478125 -28.87109375 244.5078125 C-19.63109375 244.5078125 -10.39109375 244.5078125 -0.87109375 244.5078125 C-3.3583217 263.07742256 -6.03175847 281.61792872 -8.7421875 300.15600586 C-9.37899257 304.51321296 -10.01083546 308.871126 -10.64173317 313.22919178 C-11.13138519 316.60518021 -11.62469262 319.98062699 -12.11903 323.35593224 C-12.35407251 324.96535641 -12.58770604 326.57498701 -12.81990433 328.18482399 C-13.14118382 330.41001955 -13.46762646 332.63439723 -13.79541016 334.85864258 C-13.97955475 336.1224324 -14.16369934 337.38622223 -14.35342407 338.68830872 C-14.87109375 341.5078125 -14.87109375 341.5078125 -15.87109375 342.5078125 C-17.83478528 342.6018192 -19.80188574 342.62524631 -21.76782227 342.62133789 C-23.02905411 342.62126236 -24.29028595 342.62118683 -25.58973694 342.62110901 C-26.97649169 342.6160016 -28.36324604 342.61078559 -29.75 342.60546875 C-31.16104584 342.60360451 -32.57209232 342.60218064 -33.98313904 342.60118103 C-37.7034991 342.59735629 -41.42382035 342.5875264 -45.14416504 342.57647705 C-48.93790156 342.56626198 -52.73164433 342.56168321 -56.52539062 342.55664062 C-63.97397606 342.54590408 -71.42252947 342.5288282 -78.87109375 342.5078125 C-81.71272965 324.93568947 -83.80920488 307.27121403 -85.94262695 289.60253906 C-86.46018541 285.31634704 -86.98249921 281.03074964 -87.50616741 276.74530029 C-87.91198495 273.4204222 -88.31548973 270.09526666 -88.71827126 266.77001953 C-88.91016398 265.18790416 -89.10274077 263.6058716 -89.29602623 262.02392578 C-89.56386311 259.82872554 -89.82861392 257.63317468 -90.0925293 255.4375 C-90.24336472 254.19210449 -90.39420013 252.94670898 -90.54960632 251.66357422 C-90.87109375 248.5078125 -90.87109375 248.5078125 -90.87109375 244.5078125 C-81.63109375 244.5078125 -72.39109375 244.5078125 -62.87109375 244.5078125 C-62.87109375 218.4378125 -62.87109375 192.3678125 -62.87109375 165.5078125 C-74.42109375 165.5078125 -85.97109375 165.5078125 -97.87109375 165.5078125 C-115.2565568 160.15843925 -128.76877288 153.6972638 -137.87109375 137.5078125 C-144.53809544 122.53296674 -146.94147244 106.19800684 -141.203125 90.40234375 C-138.65918086 84.87430091 -135.66187173 79.30345246 -131.32958984 74.96362305 C-127.39266904 70.9303522 -126.22587778 68.22927636 -126.19287109 62.59423828 C-126.21043457 61.76134277 -126.22799805 60.92844727 -126.24609375 60.0703125 C-125.93544704 41.49637015 -120.51245331 24.53724291 -107.87109375 10.5078125 C-107.06929687 9.61320312 -106.2675 8.71859375 -105.44140625 7.796875 C-77.28120958 -21.99579684 -32.20720588 -24.54297332 0 0 Z M-103.87109375 9.5078125 C-117.09671159 24.36647157 -124.5725563 42.0964782 -123.55859375 61.9453125 C-123.36481741 66.42579965 -123.23647674 69.46482087 -125.61328125 73.37109375 C-127.1653283 74.96755966 -128.76604508 76.51804802 -130.41015625 78.01953125 C-138.7710263 86.47329986 -141.86979999 98.53725166 -142.12109375 110.0703125 C-141.84771784 123.96424091 -136.18145449 137.66127145 -126.6875 147.8515625 C-115.25953032 158.82241339 -102.88642827 162.81172957 -87.38134766 162.79833984 C-86.25507462 162.80505707 -85.12880157 162.81177429 -83.96839905 162.81869507 C-80.26143937 162.83762495 -76.55466119 162.84159659 -72.84765625 162.84375 C-70.25987678 162.85018071 -67.67209803 162.85690928 -65.08432007 162.86392212 C-59.6658936 162.87588188 -54.2475386 162.87969016 -48.82910156 162.87841797 C-42.58739602 162.87721694 -36.34603645 162.89832123 -30.1044184 162.9299053 C-24.07412816 162.9593201 -18.04402428 162.96639112 -12.0136528 162.96519852 C-9.45968588 162.96755232 -6.90571616 162.9763633 -4.3517952 162.99186325 C-0.77411736 163.0115462 2.80267783 163.00567542 6.38037109 162.99365234 C7.42588638 163.00489136 8.47140167 163.01613037 9.54859924 163.02770996 C19.87795479 162.939884 28.53856198 159.59104325 36.12890625 152.5078125 C38.42363804 149.99529366 40.3176949 147.38538792 42.12890625 144.5078125 C42.75152344 143.57775391 42.75152344 143.57775391 43.38671875 142.62890625 C47.85603618 134.64351741 47.66386216 123.1240297 45.29296875 114.44921875 C43.87005774 111.19150145 42.10061456 108.46537496 40.12890625 105.5078125 C40.19140625 103.6328125 40.19140625 103.6328125 41.12890625 101.5078125 C41.89203125 100.8065625 42.65515625 100.1053125 43.44140625 99.3828125 C48.12700362 94.37031299 50.30359119 88.3484392 50.69140625 81.5078125 C50.31981134 73.87213642 46.8237034 67.74087156 41.31640625 62.5703125 C36.79186157 58.93696602 32.04958811 56.5078125 26.12890625 56.5078125 C26.17724609 54.99380859 26.17724609 54.99380859 26.2265625 53.44921875 C25.83104384 37.4860856 17.59878092 22.11615898 7.12890625 10.5078125 C6.53722656 9.82332031 5.94554687 9.13882813 5.3359375 8.43359375 C-5.3906834 -3.20787755 -22.62037387 -12.63375019 -38.60327148 -13.66918945 C-64.49760695 -14.20682517 -85.26368605 -9.46182957 -103.87109375 9.5078125 Z " fill="#F9F9F9" transform="translate(164.87109375,37.4921875)"/>
<path d="M0 0 C14.85501674 11.72226568 24.23758189 28.03520378 28.12890625 46.5078125 C28.38156363 49.28704367 28.35202522 51.7188254 28.12890625 54.5078125 C28.96421875 54.61996094 28.96421875 54.61996094 29.81640625 54.734375 C38.2224195 56.18270836 43.5642974 59.95779186 48.50390625 66.8828125 C53.23496419 74.61751214 53.92046403 81.61493514 52.12890625 90.5078125 C50.2136164 96.01664121 46.99657745 100.21040006 43.12890625 104.5078125 C43.39445313 105.00410156 43.66 105.50039062 43.93359375 106.01171875 C49.57370108 116.8596624 51.10533103 127.83644433 47.62890625 139.7578125 C43.55826913 150.47001545 36.00413739 157.94804881 25.65641785 162.62542725 C18.91581796 165.25041856 13.19160562 166.05568005 5.9921875 165.8984375 C5.09898804 165.89440918 4.20578857 165.89038086 3.28552246 165.88623047 C0.0039362 165.86557488 -3.27735325 165.80973341 -6.55859375 165.7578125 C-13.92171875 165.6753125 -21.28484375 165.5928125 -28.87109375 165.5078125 C-28.87109375 191.5778125 -28.87109375 217.6478125 -28.87109375 244.5078125 C-19.63109375 244.5078125 -10.39109375 244.5078125 -0.87109375 244.5078125 C-3.3583217 263.07742256 -6.03175847 281.61792872 -8.7421875 300.15600586 C-9.37899257 304.51321296 -10.01083546 308.871126 -10.64173317 313.22919178 C-11.13138519 316.60518021 -11.62469262 319.98062699 -12.11903 323.35593224 C-12.35407251 324.96535641 -12.58770604 326.57498701 -12.81990433 328.18482399 C-13.14118382 330.41001955 -13.46762646 332.63439723 -13.79541016 334.85864258 C-13.97955475 336.1224324 -14.16369934 337.38622223 -14.35342407 338.68830872 C-14.87109375 341.5078125 -14.87109375 341.5078125 -15.87109375 342.5078125 C-17.83478528 342.6018192 -19.80188574 342.62524631 -21.76782227 342.62133789 C-23.02905411 342.62126236 -24.29028595 342.62118683 -25.58973694 342.62110901 C-26.97649169 342.6160016 -28.36324604 342.61078559 -29.75 342.60546875 C-31.16104584 342.60360451 -32.57209232 342.60218064 -33.98313904 342.60118103 C-37.7034991 342.59735629 -41.42382035 342.5875264 -45.14416504 342.57647705 C-48.93790156 342.56626198 -52.73164433 342.56168321 -56.52539062 342.55664062 C-63.97397606 342.54590408 -71.42252947 342.5288282 -78.87109375 342.5078125 C-81.71272965 324.93568947 -83.80920488 307.27121403 -85.94262695 289.60253906 C-86.46018541 285.31634704 -86.98249921 281.03074964 -87.50616741 276.74530029 C-87.91198495 273.4204222 -88.31548973 270.09526666 -88.71827126 266.77001953 C-88.91016398 265.18790416 -89.10274077 263.6058716 -89.29602623 262.02392578 C-89.56386311 259.82872554 -89.82861392 257.63317468 -90.0925293 255.4375 C-90.24336472 254.19210449 -90.39420013 252.94670898 -90.54960632 251.66357422 C-90.87109375 248.5078125 -90.87109375 248.5078125 -90.87109375 244.5078125 C-81.63109375 244.5078125 -72.39109375 244.5078125 -62.87109375 244.5078125 C-62.87109375 218.4378125 -62.87109375 192.3678125 -62.87109375 165.5078125 C-74.42109375 165.5078125 -85.97109375 165.5078125 -97.87109375 165.5078125 C-115.2565568 160.15843925 -128.76877288 153.6972638 -137.87109375 137.5078125 C-144.53809544 122.53296674 -146.94147244 106.19800684 -141.203125 90.40234375 C-138.65918086 84.87430091 -135.66187173 79.30345246 -131.32958984 74.96362305 C-127.39266904 70.9303522 -126.22587778 68.22927636 -126.19287109 62.59423828 C-126.21043457 61.76134277 -126.22799805 60.92844727 -126.24609375 60.0703125 C-125.93544704 41.49637015 -120.51245331 24.53724291 -107.87109375 10.5078125 C-107.06929687 9.61320312 -106.2675 8.71859375 -105.44140625 7.796875 C-77.28120958 -21.99579684 -32.20720588 -24.54297332 0 0 Z M-103.87109375 9.5078125 C-117.09671159 24.36647157 -124.5725563 42.0964782 -123.55859375 61.9453125 C-123.36481741 66.42579965 -123.23647674 69.46482087 -125.61328125 73.37109375 C-127.1653283 74.96755966 -128.76604508 76.51804802 -130.41015625 78.01953125 C-138.7710263 86.47329986 -141.86979999 98.53725166 -142.12109375 110.0703125 C-141.84771784 123.96424091 -136.18145449 137.66127145 -126.6875 147.8515625 C-115.25953032 158.82241339 -102.88642827 162.81172957 -87.38134766 162.79833984 C-86.25507462 162.80505707 -85.12880157 162.81177429 -83.96839905 162.81869507 C-80.26143937 162.83762495 -76.55466119 162.84159659 -72.84765625 162.84375 C-70.25987678 162.85018071 -67.67209803 162.85690928 -65.08432007 162.86392212 C-59.6658936 162.87588188 -54.2475386 162.87969016 -48.82910156 162.87841797 C-42.58739602 162.87721694 -36.34603645 162.89832123 -30.1044184 162.9299053 C-24.07412816 162.9593201 -18.04402428 162.96639112 -12.0136528 162.96519852 C-9.45968588 162.96755232 -6.90571616 162.9763633 -4.3517952 162.99186325 C-0.77411736 163.0115462 2.80267783 163.00567542 6.38037109 162.99365234 C7.42588638 163.00489136 8.47140167 163.01613037 9.54859924 163.02770996 C19.87795479 162.939884 28.53856198 159.59104325 36.12890625 152.5078125 C38.42363804 149.99529366 40.3176949 147.38538792 42.12890625 144.5078125 C42.75152344 143.57775391 42.75152344 143.57775391 43.38671875 142.62890625 C47.85603618 134.64351741 47.66386216 123.1240297 45.29296875 114.44921875 C43.87005774 111.19150145 42.10061456 108.46537496 40.12890625 105.5078125 C40.19140625 103.6328125 40.19140625 103.6328125 41.12890625 101.5078125 C41.89203125 100.8065625 42.65515625 100.1053125 43.44140625 99.3828125 C48.12700362 94.37031299 50.30359119 88.3484392 50.69140625 81.5078125 C50.31981134 73.87213642 46.8237034 67.74087156 41.31640625 62.5703125 C36.79186157 58.93696602 32.04958811 56.5078125 26.12890625 56.5078125 C26.17724609 54.99380859 26.17724609 54.99380859 26.2265625 53.44921875 C25.83104384 37.4860856 17.59878092 22.11615898 7.12890625 10.5078125 C6.53722656 9.82332031 5.94554687 9.13882813 5.3359375 8.43359375 C-5.3906834 -3.20787755 -22.62037387 -12.63375019 -38.60327148 -13.66918945 C-64.49760695 -14.20682517 -85.26368605 -9.46182957 -103.87109375 9.5078125 Z M-87.87109375 247.5078125 C-86.67610362 260.05520891 -85.46476478 272.56604853 -83.9609375 285.07421875 C-83.7866873 286.53676182 -83.61258294 287.99932227 -83.43861389 289.4618988 C-83.0797541 292.47406293 -82.71914311 295.48601028 -82.35717773 298.49780273 C-81.8941825 302.35151768 -81.43587224 306.20577404 -80.97881222 310.06019688 C-80.62293215 313.0569624 -80.26461353 316.05343243 -79.90555 319.04981804 C-79.73534824 320.47266521 -79.56590738 321.89560362 -79.39726067 323.31863594 C-79.16308251 325.29157854 -78.92525273 327.26408668 -78.68725586 329.23657227 C-78.55338974 330.35459732 -78.41952362 331.47262238 -78.28160095 332.62452698 C-77.89195807 335.71723508 -77.89195807 335.71723508 -76.87109375 339.5078125 C-57.40109375 339.5078125 -37.93109375 339.5078125 -17.87109375 339.5078125 C-15.54093179 328.11403575 -15.54093179 328.11403575 -13.66015625 316.6953125 C-13.56691071 316.04563507 -13.47366516 315.39595764 -13.37759399 314.72659302 C-13.18107862 313.35623773 -12.98624607 311.98564007 -12.79309082 310.61480713 C-12.2736012 306.92937734 -11.74113365 303.24583685 -11.20703125 299.5625 C-11.09834717 298.81241669 -10.98966309 298.06233337 -10.87768555 297.28952026 C-10.12353289 292.12761169 -9.31706306 286.97600426 -8.47265625 281.828125 C-8.35874542 281.13289734 -8.24483459 280.43766968 -8.12747192 279.72137451 C-7.58672248 276.43272318 -7.03868272 273.14553443 -6.48291016 269.859375 C-6.28616699 268.6734375 -6.08942383 267.4875 -5.88671875 266.265625 C-5.62810059 264.73639404 -5.62810059 264.73639404 -5.36425781 263.17626953 C-4.66524237 257.97656354 -4.3067903 252.73617108 -3.87109375 247.5078125 C-31.59109375 247.5078125 -59.31109375 247.5078125 -87.87109375 247.5078125 Z " fill="#040404" transform="translate(164.87109375,37.4921875)"/>
<path d="M0 0 C9.24 0 18.48 0 28 0 C28 0.33 28 0.66 28 1 C39.22 1 50.44 1 62 1 C62 0.67 62 0.34 62 0 C71.24 0 80.48 0 90 0 C87.51277205 18.56961006 84.83933528 37.11011622 82.12890625 55.64819336 C81.49210118 60.00540046 80.86025829 64.3633135 80.22936058 68.72137928 C79.73970856 72.09736771 79.24640113 75.47281449 78.75206375 78.84811974 C78.51702124 80.45754391 78.28338771 82.06717451 78.05118942 83.67701149 C77.72990993 85.90220705 77.40346729 88.12658473 77.07568359 90.35083008 C76.891539 91.6146199 76.70739441 92.87840973 76.51766968 94.18049622 C76 97 76 97 75 98 C73.03630847 98.0940067 71.06920801 98.11743381 69.10327148 98.11352539 C67.84203964 98.11344986 66.5808078 98.11337433 65.28135681 98.11329651 C63.89460206 98.1081891 62.50784771 98.10297309 61.12109375 98.09765625 C59.71004791 98.09579201 58.29900143 98.09436814 56.88795471 98.09336853 C53.16759465 98.08954379 49.4472734 98.0797139 45.72692871 98.06866455 C41.93319219 98.05844948 38.13944942 98.05387071 34.34570312 98.04882812 C26.89711769 98.03809158 19.44856428 98.0210157 12 98 C9.1583641 80.42787697 7.06188887 62.76340153 4.9284668 45.09472656 C4.41090834 40.80853454 3.88859454 36.52293714 3.36492634 32.23748779 C2.9591088 28.9126097 2.55560402 25.58745416 2.15282249 22.26220703 C1.96092977 20.68009166 1.76835298 19.0980591 1.57506752 17.51611328 C1.30723064 15.32091304 1.04247983 13.12536218 0.77856445 10.9296875 C0.62772903 9.68429199 0.47689362 8.43889648 0.32148743 7.15576172 C0 4 0 4 0 0 Z M3 3 C4.19499013 15.54739641 5.40632897 28.05823603 6.91015625 40.56640625 C7.08440645 42.02894932 7.25851081 43.49150977 7.43247986 44.9540863 C7.79133965 47.96625043 8.15195064 50.97819778 8.51391602 53.98999023 C8.97691125 57.84370518 9.43522151 61.69796154 9.89228153 65.55238438 C10.2481616 68.5491499 10.60648022 71.54561993 10.96554375 74.54200554 C11.13574551 75.96485271 11.30518637 77.38779112 11.47383308 78.81082344 C11.70801124 80.78376604 11.94584102 82.75627418 12.18383789 84.72875977 C12.31770401 85.84678482 12.45157013 86.96480988 12.5894928 88.11671448 C12.97913568 91.20942258 12.97913568 91.20942258 14 95 C33.47 95 52.94 95 73 95 C75.33016196 83.60622325 75.33016196 83.60622325 77.2109375 72.1875 C77.30418304 71.53782257 77.39742859 70.88814514 77.49349976 70.21878052 C77.69001513 68.84842523 77.88484768 67.47782757 78.07800293 66.10699463 C78.59749255 62.42156484 79.1299601 58.73802435 79.6640625 55.0546875 C79.77274658 54.30460419 79.88143066 53.55452087 79.9934082 52.78170776 C80.74756086 47.61979919 81.55403069 42.46819176 82.3984375 37.3203125 C82.51234833 36.62508484 82.62625916 35.92985718 82.74362183 35.21356201 C83.28437127 31.92491068 83.83241103 28.63772193 84.38818359 25.3515625 C84.58492676 24.165625 84.78166992 22.9796875 84.984375 21.7578125 C85.24299316 20.22858154 85.24299316 20.22858154 85.50683594 18.66845703 C86.20585138 13.46875104 86.56430345 8.22835858 87 3 C59.28 3 31.56 3 3 3 Z " fill="#424242" transform="translate(74,282)"/>
<path d="M0 0 C-0.55178581 9.43389026 -1.7139689 18.69554564 -3.15673828 28.02490234 C-3.50582464 30.2877566 -3.84511413 32.55194358 -4.18359375 34.81640625 C-4.4030756 36.25789944 -4.62310617 37.69930921 -4.84375 39.140625 C-5.04162109 40.43516602 -5.23949219 41.72970703 -5.44335938 43.06347656 C-6 46 -6 46 -7 47 C-8.96369153 47.0940067 -10.93079199 47.11743381 -12.89672852 47.11352539 C-14.15796036 47.11344986 -15.4191922 47.11337433 -16.71864319 47.11329651 C-18.10539794 47.1081891 -19.49215229 47.10297309 -20.87890625 47.09765625 C-22.28995209 47.09579201 -23.70099857 47.09436814 -25.11204529 47.09336853 C-28.83240535 47.08954379 -32.5527266 47.0797139 -36.27307129 47.06866455 C-40.06680781 47.05844948 -43.86055058 47.05387071 -47.65429688 47.04882812 C-55.10288231 47.03809158 -62.55143572 47.0210157 -70 47 C-70.3396019 45.12612523 -70.67138691 43.25083303 -71 41.375 C-71.185625 40.33085937 -71.37125 39.28671875 -71.5625 38.2109375 C-71.98715797 35.09425135 -72.07545206 32.14069188 -72 29 C-70.515 29.99 -70.515 29.99 -69 31 C-68.67 35.29 -68.34 39.58 -68 44 C-48.53 44 -29.06 44 -9 44 C-7.03553047 29.64982912 -7.03553047 29.64982912 -5.12109375 15.29296875 C-4.89342582 13.59111951 -4.66557557 11.88929465 -4.4375 10.1875 C-4.26831055 8.84655273 -4.26831055 8.84655273 -4.09570312 7.47851562 C-3.79941247 5.30847628 -3.40970936 3.15151043 -3 1 C-1 0 -1 0 0 0 Z " fill="#474747" transform="translate(156,333)"/>
<path d="M0 0 C9.24 0 18.48 0 28 0 C27.16488204 6.17987292 26.32526794 12.35883984 25.47509766 18.53662109 C25.14715241 20.92728463 24.82144462 23.31825579 24.49755859 25.70947266 C23.98383765 29.4947083 23.46141584 33.2786634 22.9375 37.0625 C22.77540039 38.26874023 22.61330078 39.47498047 22.44628906 40.71777344 C22.28741211 41.85375977 22.12853516 42.98974609 21.96484375 44.16015625 C21.8268335 45.16699463 21.68882324 46.17383301 21.54663086 47.21118164 C20.99928795 50.00363277 20.14396865 52.40088182 19 55 C18.67 55 18.34 55 18 55 C17.65416834 46.73644356 18.98888542 38.86284709 20.375 30.75 C20.59964206 29.40766633 20.82360422 28.06521869 21.046875 26.72265625 C21.48439822 24.09270631 21.92449095 21.46323868 22.36621094 18.83398438 C23.29263338 13.22977096 24.14883496 7.61609829 25 2 C17.08 2 9.16 2 1 2 C0.67 1.34 0.34 0.68 0 0 Z " fill="#232323" transform="translate(136,282)"/>
<path d="M0 0 C0.66 0 1.32 0 2 0 C7.38914266 34.74200632 7.38914266 34.74200632 7 47 C2.68387326 39.06346023 2.41453701 29.20045706 1.375 20.375 C1.2409375 19.29476563 1.106875 18.21453125 0.96875 17.1015625 C0.28196956 11.35503232 -0.15412719 5.78677542 0 0 Z " fill="#3E3E3E" transform="translate(79,319)"/>
<path d="M0 0 C9.24 0 18.48 0 28 0 C27.67 2.97 27.34 5.94 27 9 C26.34 9 25.68 9 25 9 C25 6.69 25 4.38 25 2 C17.08 2 9.16 2 1 2 C0.67 1.34 0.34 0.68 0 0 Z " fill="#353535" transform="translate(136,282)"/>
<path d="M0 0 C3 2 3 2 3.73046875 5.51953125 C3.89668327 6.94897609 4.04847454 8.38015516 4.1875 9.8125 C4.26935547 10.52470703 4.35121094 11.23691406 4.43554688 11.97070312 C4.84164712 15.65973142 5.09477377 19.28924226 5 23 C4.01 23 3.02 23 2 23 C1.66114962 20.47980028 1.32879665 17.95901484 1 15.4375 C0.90460938 14.73302734 0.80921875 14.02855469 0.7109375 13.30273438 C0.13333583 8.82632145 -0.09489383 4.51338762 0 0 Z " fill="#474747" transform="translate(76,296)"/>
<path d="M0 0 C-0.54479018 8.75965262 -1.54107999 17.34562983 -3 26 C-3.33 26 -3.66 26 -4 26 C-5.28179209 17.5124578 -5.0172952 9.37590405 -3 1 C-1 0 -1 0 0 0 Z " fill="#393939" transform="translate(156,333)"/>
<path d="M0 0 C0.66 0.33 1.32 0.66 2 1 C1.03644647 14.6332574 1.03644647 14.6332574 0 21 C-0.99 21 -1.98 21 -3 21 C-2.01 14.07 -1.02 7.14 0 0 Z " fill="#242424" transform="translate(160,290)"/>
<path d="M0 0 C1.2065625 0.0309375 1.2065625 0.0309375 2.4375 0.0625 C2.81968767 1.71864657 3.15145102 3.38707024 3.4375 5.0625 C2.4375 6.0625 2.4375 6.0625 -0.125 6.125 C-1.3315625 6.0940625 -1.3315625 6.0940625 -2.5625 6.0625 C-2.94468767 4.40635343 -3.27645102 2.73792976 -3.5625 1.0625 C-2.5625 0.0625 -2.5625 0.0625 0 0 Z " fill="#1E1E1E" transform="translate(148.5625,83.9375)"/>
<path d="M0 0 C0.66 0.33 1.32 0.66 2 1 C-3.28 6.28 -8.56 11.56 -14 17 C-14 11.79027084 -9.49956486 8.58109594 -6 5 C-4.05399166 3.22905099 -2.08162714 1.61326103 0 0 Z " fill="#DADADA" transform="translate(71,38)"/>
<path d="M0 0 C2.125 0.375 2.125 0.375 4 1 C4.625 2.875 4.625 2.875 5 5 C4.34 5.66 3.68 6.32 3 7 C0.875 6.625 0.875 6.625 -1 6 C-1.625 4.125 -1.625 4.125 -2 2 C-1.34 1.34 -0.68 0.68 0 0 Z " fill="#191919" transform="translate(65,182)"/>
<path d="M0 0 C2.125 0.375 2.125 0.375 4 1 C4.625 2.875 4.625 2.875 5 5 C4.34 5.66 3.68 6.32 3 7 C0.875 6.625 0.875 6.625 -1 6 C-1.625 4.125 -1.625 4.125 -2 2 C-1.34 1.34 -0.68 0.68 0 0 Z " fill="#1B1B1B" transform="translate(111,177)"/>
<path d="M0 0 C2.125 0.375 2.125 0.375 4 1 C4.625 2.875 4.625 2.875 5 5 C4.34 5.66 3.68 6.32 3 7 C0.875 6.625 0.875 6.625 -1 6 C-1.625 4.125 -1.625 4.125 -2 2 C-1.34 1.34 -0.68 0.68 0 0 Z " fill="#191919" transform="translate(166,118)"/>
<path d="M0 0 C0.33 0 0.66 0 1 0 C1.05428973 2.22889496 1.09292338 4.45817471 1.125 6.6875 C1.14820313 7.92886719 1.17140625 9.17023438 1.1953125 10.44921875 C1.01032021 13.81237857 0.45767895 15.9985587 -1 19 C-1.33 19 -1.66 19 -2 19 C-2.21432579 12.35590042 -1.51233701 6.46794133 0 0 Z " fill="#2C2C2C" transform="translate(151,352)"/>
<path d="M0 0 C2.0625 0.4375 2.0625 0.4375 4 1 C4.33 2.65 4.66 4.3 5 6 C3.34385343 6.38218767 1.67542976 6.71395102 0 7 C-1 6 -1 6 -1.125 3.5 C-1 1 -1 1 0 0 Z " fill="#1A1A1A" transform="translate(186,143)"/>
<path d="M0 0 C2.475 0.99 2.475 0.99 5 2 C4.67 3.32 4.34 4.64 4 6 C2.125 6.625 2.125 6.625 0 7 C-0.66 6.34 -1.32 5.68 -2 5 C-1.46428571 1.46428571 -1.46428571 1.46428571 0 0 Z " fill="#161616" transform="translate(93,143)"/>
<path d="M0 0 C1.65 0.33 3.3 0.66 5 1 C5 2.65 5 4.3 5 6 C3.125 6.625 3.125 6.625 1 7 C0.34 6.34 -0.32 5.68 -1 5 C-0.625 2.375 -0.625 2.375 0 0 Z " fill="#151515" transform="translate(117,113)"/>
<path d="M0 0 C1.67542976 0.28604898 3.34385343 0.61781233 5 1 C4.67 2.65 4.34 4.3 4 6 C2.35 6 0.7 6 -1 6 C-1.042721 4.33388095 -1.04063832 2.66617115 -1 1 C-0.67 0.67 -0.34 0.34 0 0 Z " fill="#0F0F0F" transform="translate(159,182)"/>
<path d="M0 0 C1.67542976 0.28604898 3.34385343 0.61781233 5 1 C4.67 2.65 4.34 4.3 4 6 C2.35 6 0.7 6 -1 6 C-1.042721 4.33388095 -1.04063832 2.66617115 -1 1 C-0.67 0.67 -0.34 0.34 0 0 Z " fill="#0B0B0B" transform="translate(46,148)"/>
<path d="M0 0 C1.65 0.33 3.3 0.66 5 1 C4.67 2.65 4.34 4.3 4 6 C2.35 5.67 0.7 5.34 -1 5 C-0.67 3.35 -0.34 1.7 0 0 Z " fill="#070707" transform="translate(140,148)"/>
<path d="M0 0 C0.66 0 1.32 0 2 0 C2.8723412 2.99480917 3.10829766 5.63575911 3.0625 8.75 C3.05347656 9.54921875 3.04445313 10.3484375 3.03515625 11.171875 C3.01775391 12.07679688 3.01775391 12.07679688 3 13 C2.34 13 1.68 13 1 13 C-0.10228696 8.59085217 -0.07654536 4.51617599 0 0 Z " fill="#2C2C2C" transform="translate(79,319)"/>
<path d="M0 0 C0.33 0 0.66 0 1 0 C2.32286246 4.96073422 2.08893197 9.91111512 2 15 C-0.62346737 9.75306526 -1.18818757 6.92790857 -1 1 C-0.67 0.67 -0.34 0.34 0 0 Z " fill="#252525" transform="translate(84,351)"/>
<path d="M0 0 C0.66 0 1.32 0 2 0 C2.33 2.64 2.66 5.28 3 8 C2.01 8 1.02 8 0 8 C0 5.36 0 2.72 0 0 Z " fill="#3A3A3A" transform="translate(78,311)"/>
<path d="M0 0 C-0.33 4.29 -0.66 8.58 -1 13 C-1.33 13 -1.66 13 -2 13 C-2.33 9.04 -2.66 5.08 -3 1 C-1 0 -1 0 0 0 Z " fill="#606060" transform="translate(156,333)"/>
<path d="M0 0 C0.33 0 0.66 0 1 0 C1.19622241 4.21878192 0.80230168 7.17010894 -1 11 C-1.33 11 -1.66 11 -2 11 C-2.05399736 9.54207116 -2.09279177 8.08357288 -2.125 6.625 C-2.15980469 5.40683594 -2.15980469 5.40683594 -2.1953125 4.1640625 C-2 2 -2 2 0 0 Z " fill="#363636" transform="translate(156,326)"/>
</svg>
